<?xml version="1.0" encoding="UTF-8"?>
<svg version="1.1" xmlns="http://www.w3.org/2000/svg" width="1920" height="1920">
<path d="M0 0 C633.6 0 1267.2 0 1920 0 C1920 633.6 1920 1267.2 1920 1920 C1286.4 1920 652.8 1920 0 1920 C0 1286.4 0 652.8 0 0 Z " fill="#FEFEFE" transform="translate(0,0)"/>
<path d="M0 0 C2.04104547 -0.00196252 4.08206539 -0.00708588 6.1231041 -0.01256943 C10.0133657 -0.0181939 13.90320107 -0.00750367 17.7934227 0.00973892 C18.94762207 0.00896347 20.10182144 0.00818802 21.29099655 0.00738907 C28.35179078 0.06706937 35.13138938 0.71640017 42.1041069 1.83552933 C47.37834293 2.61720175 52.67806195 2.86855626 57.9965477 3.18552017 C103.45706199 6.30799039 154.44131932 15.81082624 196.3090477 34.31052017 C197.98523537 34.92689331 199.66538087 35.53254933 201.3481102 36.13083267 C232.19995662 47.23413593 262.12546636 61.61497216 290.3090477 78.31052017 C291.27036606 78.87770767 292.23168442 79.44489517 293.22213364 80.02927017 C316.97548692 94.10067813 339.17289817 109.93319557 360.77193832 127.0937233 C362.16895682 128.19962231 363.57448547 129.29474955 364.9809227 130.38864517 C370.74715787 134.90614152 376.13987259 139.74171274 381.5043602 144.72067642 C383.74436853 146.78909637 386.00371584 148.81607332 388.3090477 150.81052017 C400.98944393 161.8505366 413.65667501 173.36693069 424.51607895 186.23630142 C426.49142589 188.5215067 428.54115604 190.72434459 430.60348129 192.9308815 C436.44635069 199.18619936 441.98853442 205.60004581 447.3090477 212.31052017 C448.14492454 213.35353754 448.98086453 214.39650429 449.8168602 215.43942642 C468.97325558 239.45925256 485.83850133 264.7778728 501.3090477 291.31052017 C501.7726268 292.10490494 502.2362059 292.8992897 502.71383286 293.71774673 C513.904123 313.03744089 523.75752456 333.09614147 532.3715477 353.68552017 C532.63722549 354.31920517 532.90290329 354.95289017 533.17663193 355.60577774 C544.9295271 383.75961868 555.37904021 413.58975769 561.3168602 443.58005142 C562.00830311 447.02229018 562.84377772 450.4029933 563.73482895 453.79880142 C565.54381797 460.93457257 566.77478872 468.1447777 567.98897934 475.40036392 C568.3699512 477.67598394 568.75784546 479.95033858 569.14693832 482.22458267 C571.28447183 494.79031184 573.26472231 507.35608962 574.3715477 520.06052017 C574.44953598 520.89583267 574.52752426 521.73114517 574.60787582 522.59177017 C578.18470066 562.55761466 577.89173288 603.25065473 572.60976791 643.02908707 C572.30613387 645.33262613 572.01436113 647.63740308 571.72555161 649.94284439 C567.70529417 681.83995916 560.39800864 712.56898073 552.01607895 743.57223892 C551.78810623 744.42119232 551.56013351 745.27014572 551.32525253 746.14482498 C549.38525936 753.26802595 547.23190032 760.30973388 544.3715477 767.12302017 C542.51414487 771.66802861 540.9824052 776.27338778 539.53170395 780.96286392 C538.10133229 784.87924893 536.38576012 788.61497118 534.64034653 792.3996315 C532.97638061 796.03789772 531.39968825 799.7101386 529.82320786 803.38693619 C506.97111532 856.60789042 476.4860955 905.65643071 438.74898911 949.62790298 C437.22430744 951.40954186 435.70949264 953.19925427 434.19576645 954.99020767 C429.58322256 960.4328091 425.00064782 965.80686517 419.85982895 970.76364517 C418.20242691 972.4168724 416.6991892 974.15126595 415.1840477 975.93552017 C408.23541381 983.98213233 400.55927525 991.57019554 392.45357895 998.44723892 C390.14724099 1000.45110633 387.91680879 1002.52305737 385.68478012 1004.60886002 C380.3673081 1009.57490981 374.97243893 1014.3612866 369.2934227 1018.91598892 C367.07877227 1020.69292702 364.88412389 1022.48547819 362.6996727 1024.29880142 C314.20330934 1064.42489365 258.50129429 1094.51400049 199.90572739 1116.93161392 C196.92244752 1118.07535304 193.9464734 1119.23511512 190.9731102 1120.40427017 C169.1331214 1128.87312121 146.1892946 1134.46586947 123.3090477 1139.31052017 C122.13068344 1139.56043716 120.95231918 1139.81035416 119.73824692 1140.06784439 C104.53887032 1143.24554781 89.3069385 1145.88965308 73.9340477 1148.06052017 C73.23233444 1148.16147995 72.53062119 1148.26243973 71.80764389 1148.36645889 C48.44212879 1151.69609803 25.14404379 1152.69024275 1.5590477 1152.62302017 C0.21240882 1152.62109471 -1.13423018 1152.61925439 -2.48086929 1152.61749649 C-42.12008005 1152.54240861 -80.94099868 1148.87112327 -119.6909523 1140.31052017 C-120.64888687 1140.10346451 -121.60682144 1139.89640884 -122.59378433 1139.68307877 C-147.74285009 1134.22243293 -172.61435725 1127.44310805 -196.6909523 1118.31052017 C-197.6181105 1117.96045914 -198.54526871 1117.6103981 -199.50052261 1117.24972916 C-242.38626308 1100.97077574 -283.96136812 1080.53493544 -321.6909523 1054.31052017 C-322.34934097 1053.85644791 -323.00772964 1053.40237564 -323.68606949 1052.93454361 C-343.2952832 1039.38852442 -362.60447316 1024.97984121 -380.0659523 1008.72458267 C-382.18694111 1006.77403046 -384.33269592 1004.87195596 -386.50735855 1002.98239517 C-390.63102623 999.3866343 -394.64369553 995.6840784 -398.6284523 991.93552017 C-399.32575455 991.27995132 -400.02305679 990.62438248 -400.74148941 989.94894791 C-407.67710048 983.40882729 -414.48008686 976.83952903 -420.68704605 969.59567642 C-422.74780125 967.24569242 -424.8657124 964.96006462 -426.99905777 962.67624283 C-432.83681205 956.42371511 -438.33816337 949.98669234 -443.6909523 943.31052017 C-444.34837418 942.52161392 -445.00579605 941.73270767 -445.6831398 940.91989517 C-459.88111078 923.88233 -472.69565912 905.95459731 -484.6909523 887.31052017 C-485.27505875 886.40269791 -485.85916519 885.49487564 -486.46097183 884.55954361 C-493.83468927 873.02634748 -500.59435645 861.23645806 -507.05423355 849.16989517 C-509.00689462 845.5330037 -511.07069853 842.00286945 -513.2534523 838.49802017 C-521.70957866 824.19873108 -527.50384694 808.03198461 -533.69827652 792.65475845 C-535.34512009 788.56721231 -537.03182559 784.51396647 -538.8472023 780.49802017 C-540.2048842 777.47371481 -541.36954305 774.51260653 -542.2534523 771.31052017 C-543.95449748 765.38400638 -545.85935234 759.56649441 -547.99246597 753.77975845 C-551.91919307 743.08500655 -554.98398713 732.30911283 -557.6909523 721.24802017 C-557.90472519 720.38168961 -558.11849808 719.51535904 -558.33874893 718.62277603 C-565.30702957 690.2930563 -569.87820144 661.88647326 -573.15481949 632.91354752 C-573.48691522 629.9906021 -573.85561441 627.07743351 -574.26614761 624.16452408 C-576.05388703 610.95161077 -575.99412921 597.74339321 -575.95169449 584.42868423 C-575.94106571 580.47767831 -575.95159386 576.52713651 -575.9643898 572.57614517 C-576.01400786 477.51276744 -551.64371169 382.68110355 -479.6909523 257.31052017 C-479.24977066 256.65084244 -478.80858902 255.9911647 -478.35403824 255.31149673 C-468.05007579 239.95555558 -456.89132161 225.34867874 -445.13821793 211.0780983 C-443.8668876 209.52539392 -442.61338071 207.95813166 -441.3628273 206.38864517 C-435.91069249 199.56338011 -430.02321953 193.21626689 -424.03079605 186.86911392 C-421.38347922 184.06229349 -418.8028805 181.20694049 -416.2534523 178.31052017 C-408.31977874 169.44085141 -399.86521789 160.78227031 -390.76517105 153.10348892 C-388.48005316 151.12821753 -386.27729823 149.07856553 -384.07083511 147.01633072 C-377.81451173 141.17246258 -371.38652188 135.6508203 -364.6909523 130.31052017 C-363.57304036 129.40125387 -362.4558917 128.49104858 -361.3393898 127.58005142 C-346.70635062 115.68796812 -331.54326912 104.52314585 -315.6909523 94.31052017 C-314.9803566 93.84968033 -314.26976089 93.38884048 -313.53763199 92.9140358 C-293.89848591 80.20585402 -273.56742518 68.85329845 -252.6909523 58.31052017 C-251.77652359 57.84790787 -250.86209488 57.38529556 -249.91995621 56.9086647 C-220.21067489 41.99844816 -188.03196772 29.15076633 -155.6909523 21.31052017 C-153.37725483 20.68996779 -151.06480854 20.0647368 -148.7534523 19.43552017 C-146.81286222 18.92272176 -144.87221654 18.41012557 -142.93069839 17.9008522 C-141.33883602 17.48128351 -139.7481293 17.05731939 -138.15823746 16.63034439 C-114.77161198 10.37466268 -90.98621811 6.25940625 -66.92142105 3.6664772 C-64.72186151 3.4241134 -62.52392264 3.16667462 -60.32767105 2.89596939 C-40.24545206 0.44104543 -20.21182287 0.0149383 0 0 Z " fill="#FEFEFE" transform="translate(959.6909523010254,383.68947982788086)"/>
<path d="M0 0 C2.04104547 -0.00196252 4.08206539 -0.00708588 6.1231041 -0.01256943 C10.0133657 -0.0181939 13.90320107 -0.00750367 17.7934227 0.00973892 C18.94762207 0.00896347 20.10182144 0.00818802 21.29099655 0.00738907 C28.35179078 0.06706937 35.13138938 0.71640017 42.1041069 1.83552933 C47.37834293 2.61720175 52.67806195 2.86855626 57.9965477 3.18552017 C103.45706199 6.30799039 154.44131932 15.81082624 196.3090477 34.31052017 C197.98523537 34.92689331 199.66538087 35.53254933 201.3481102 36.13083267 C232.19995662 47.23413593 262.12546636 61.61497216 290.3090477 78.31052017 C291.27036606 78.87770767 292.23168442 79.44489517 293.22213364 80.02927017 C316.97548692 94.10067813 339.17289817 109.93319557 360.77193832 127.0937233 C362.16895682 128.19962231 363.57448547 129.29474955 364.9809227 130.38864517 C370.74715787 134.90614152 376.13987259 139.74171274 381.5043602 144.72067642 C383.74436853 146.78909637 386.00371584 148.81607332 388.3090477 150.81052017 C400.98944393 161.8505366 413.65667501 173.36693069 424.51607895 186.23630142 C426.49142589 188.5215067 428.54115604 190.72434459 430.60348129 192.9308815 C436.44635069 199.18619936 441.98853442 205.60004581 447.3090477 212.31052017 C448.14492454 213.35353754 448.98086453 214.39650429 449.8168602 215.43942642 C468.97325558 239.45925256 485.83850133 264.7778728 501.3090477 291.31052017 C501.7726268 292.10490494 502.2362059 292.8992897 502.71383286 293.71774673 C513.904123 313.03744089 523.75752456 333.09614147 532.3715477 353.68552017 C532.63722549 354.31920517 532.90290329 354.95289017 533.17663193 355.60577774 C544.9295271 383.75961868 555.37904021 413.58975769 561.3168602 443.58005142 C562.00830311 447.02229018 562.84377772 450.4029933 563.73482895 453.79880142 C565.54381797 460.93457257 566.77478872 468.1447777 567.98897934 475.40036392 C568.3699512 477.67598394 568.75784546 479.95033858 569.14693832 482.22458267 C571.28447183 494.79031184 573.26472231 507.35608962 574.3715477 520.06052017 C574.44953598 520.89583267 574.52752426 521.73114517 574.60787582 522.59177017 C578.18470066 562.55761466 577.89173288 603.25065473 572.60976791 643.02908707 C572.30613387 645.33262613 572.01436113 647.63740308 571.72555161 649.94284439 C567.70529417 681.83995916 560.39800864 712.56898073 552.01607895 743.57223892 C551.78810623 744.42119232 551.56013351 745.27014572 551.32525253 746.14482498 C549.38525936 753.26802595 547.23190032 760.30973388 544.3715477 767.12302017 C542.51414487 771.66802861 540.9824052 776.27338778 539.53170395 780.96286392 C538.10133229 784.87924893 536.38576012 788.61497118 534.64034653 792.3996315 C532.97638061 796.03789772 531.39968825 799.7101386 529.82320786 803.38693619 C506.97111532 856.60789042 476.4860955 905.65643071 438.74898911 949.62790298 C437.22430744 951.40954186 435.70949264 953.19925427 434.19576645 954.99020767 C429.58322256 960.4328091 425.00064782 965.80686517 419.85982895 970.76364517 C418.20242691 972.4168724 416.6991892 974.15126595 415.1840477 975.93552017 C408.23541381 983.98213233 400.55927525 991.57019554 392.45357895 998.44723892 C390.14724099 1000.45110633 387.91680879 1002.52305737 385.68478012 1004.60886002 C380.3673081 1009.57490981 374.97243893 1014.3612866 369.2934227 1018.91598892 C367.07877227 1020.69292702 364.88412389 1022.48547819 362.6996727 1024.29880142 C314.20330934 1064.42489365 258.50129429 1094.51400049 199.90572739 1116.93161392 C196.92244752 1118.07535304 193.9464734 1119.23511512 190.9731102 1120.40427017 C169.1331214 1128.87312121 146.1892946 1134.46586947 123.3090477 1139.31052017 C122.13068344 1139.56043716 120.95231918 1139.81035416 119.73824692 1140.06784439 C104.53887032 1143.24554781 89.3069385 1145.88965308 73.9340477 1148.06052017 C73.23233444 1148.16147995 72.53062119 1148.26243973 71.80764389 1148.36645889 C48.44212879 1151.69609803 25.14404379 1152.69024275 1.5590477 1152.62302017 C0.21240882 1152.62109471 -1.13423018 1152.61925439 -2.48086929 1152.61749649 C-42.12008005 1152.54240861 -80.94099868 1148.87112327 -119.6909523 1140.31052017 C-120.64888687 1140.10346451 -121.60682144 1139.89640884 -122.59378433 1139.68307877 C-147.74285009 1134.22243293 -172.61435725 1127.44310805 -196.6909523 1118.31052017 C-197.6181105 1117.96045914 -198.54526871 1117.6103981 -199.50052261 1117.24972916 C-242.38626308 1100.97077574 -283.96136812 1080.53493544 -321.6909523 1054.31052017 C-322.34934097 1053.85644791 -323.00772964 1053.40237564 -323.68606949 1052.93454361 C-343.2952832 1039.38852442 -362.60447316 1024.97984121 -380.0659523 1008.72458267 C-382.18694111 1006.77403046 -384.33269592 1004.87195596 -386.50735855 1002.98239517 C-390.63102623 999.3866343 -394.64369553 995.6840784 -398.6284523 991.93552017 C-399.32575455 991.27995132 -400.02305679 990.62438248 -400.74148941 989.94894791 C-407.67710048 983.40882729 -414.48008686 976.83952903 -420.68704605 969.59567642 C-422.74780125 967.24569242 -424.8657124 964.96006462 -426.99905777 962.67624283 C-432.83681205 956.42371511 -438.33816337 949.98669234 -443.6909523 943.31052017 C-444.34837418 942.52161392 -445.00579605 941.73270767 -445.6831398 940.91989517 C-459.88111078 923.88233 -472.69565912 905.95459731 -484.6909523 887.31052017 C-485.27505875 886.40269791 -485.85916519 885.49487564 -486.46097183 884.55954361 C-493.83468927 873.02634748 -500.59435645 861.23645806 -507.05423355 849.16989517 C-509.00689462 845.5330037 -511.07069853 842.00286945 -513.2534523 838.49802017 C-521.70957866 824.19873108 -527.50384694 808.03198461 -533.69827652 792.65475845 C-535.34512009 788.56721231 -537.03182559 784.51396647 -538.8472023 780.49802017 C-540.2048842 777.47371481 -541.36954305 774.51260653 -542.2534523 771.31052017 C-543.95449748 765.38400638 -545.85935234 759.56649441 -547.99246597 753.77975845 C-551.91919307 743.08500655 -554.98398713 732.30911283 -557.6909523 721.24802017 C-557.90472519 720.38168961 -558.11849808 719.51535904 -558.33874893 718.62277603 C-565.30702957 690.2930563 -569.87820144 661.88647326 -573.15481949 632.91354752 C-573.48691522 629.9906021 -573.85561441 627.07743351 -574.26614761 624.16452408 C-576.05388703 610.95161077 -575.99412921 597.74339321 -575.95169449 584.42868423 C-575.94106571 580.47767831 -575.95159386 576.52713651 -575.9643898 572.57614517 C-576.01400786 477.51276744 -551.64371169 382.68110355 -479.6909523 257.31052017 C-479.24977066 256.65084244 -478.80858902 255.9911647 -478.35403824 255.31149673 C-468.05007579 239.95555558 -456.89132161 225.34867874 -445.13821793 211.0780983 C-443.8668876 209.52539392 -442.61338071 207.95813166 -441.3628273 206.38864517 C-435.91069249 199.56338011 -430.02321953 193.21626689 -424.03079605 186.86911392 C-421.38347922 184.06229349 -418.8028805 181.20694049 -416.2534523 178.31052017 C-408.31977874 169.44085141 -399.86521789 160.78227031 -390.76517105 153.10348892 C-388.48005316 151.12821753 -386.27729823 149.07856553 -384.07083511 147.01633072 C-377.81451173 141.17246258 -371.38652188 135.6508203 -364.6909523 130.31052017 C-363.57304036 129.40125387 -362.4558917 128.49104858 -361.3393898 127.58005142 C-346.70635062 115.68796812 -331.54326912 104.52314585 -315.6909523 94.31052017 C-314.9803566 93.84968033 -314.26976089 93.38884048 -313.53763199 92.9140358 C-293.89848591 80.20585402 -273.56742518 68.85329845 -252.6909523 58.31052017 C-251.77652359 57.84790787 -250.86209488 57.38529556 -249.91995621 56.9086647 C-220.21067489 41.99844816 -188.03196772 29.15076633 -155.6909523 21.31052017 C-153.37725483 20.68996779 -151.06480854 20.0647368 -148.7534523 19.43552017 C-146.81286222 18.92272176 -144.87221654 18.41012557 -142.93069839 17.9008522 C-141.33883602 17.48128351 -139.7481293 17.05731939 -138.15823746 16.63034439 C-114.77161198 10.37466268 -90.98621811 6.25940625 -66.92142105 3.6664772 C-64.72186151 3.4241134 -62.52392264 3.16667462 -60.32767105 2.89596939 C-40.24545206 0.44104543 -20.21182287 0.0149383 0 0 Z M-101.6909523 130.31052017 C-102.52787613 130.49163345 -103.36479996 130.67274673 -104.22708511 130.8593483 C-119.24350922 134.15845728 -133.70839996 139.15596719 -148.23245621 144.13229752 C-152.48718921 145.58177807 -156.75490175 146.99017078 -161.02640152 148.38937759 C-166.01908872 150.11536338 -170.84964134 152.20292868 -175.6909523 154.31052017 C-176.35900894 154.5994313 -177.02706558 154.88834244 -177.71536636 155.18600845 C-187.86580173 159.58544367 -197.86213995 164.21960118 -207.69778824 169.28512955 C-209.02962984 169.97030039 -210.36363711 170.65127738 -211.69974136 171.3280983 C-245.3355218 188.3805815 -277.33439447 210.86422033 -304.8472023 236.67770767 C-307.00221843 238.6728737 -309.17939527 240.59760758 -311.40579605 242.50973892 C-316.40835035 246.86851705 -321.07412315 251.54753354 -325.7534523 256.24802017 C-326.61261246 257.10331314 -327.47177261 257.95860611 -328.35696793 258.83981705 C-333.34520332 263.83567389 -338.09651937 268.95306171 -342.6909523 274.31052017 C-343.70019008 275.44424402 -344.71185375 276.5758137 -345.72610855 277.70505142 C-353.78073647 286.75941866 -361.03910896 296.26795512 -368.10550308 306.10788345 C-369.51678034 308.06854613 -370.94174058 310.01791594 -372.37454605 311.96286392 C-395.92312579 344.10957534 -417.09127573 381.26396211 -428.74173355 419.48239517 C-429.60140558 422.04372252 -430.56769231 424.5120625 -431.58548355 427.01364517 C-443.37446636 456.23323001 -450.19076556 488.95003979 -453.46306229 520.22836685 C-453.68608036 522.26600689 -453.93875645 524.298049 -454.19681168 526.33151627 C-456.00451556 541.34020037 -456.04774965 556.34726019 -456.00860596 571.44408798 C-456.00339593 573.58367076 -456.00145939 575.723239 -455.99994278 577.8628273 C-455.95950805 610.62015555 -452.95863068 642.07796251 -446.0659523 674.12302017 C-445.89687363 674.91201706 -445.72779495 675.70101395 -445.55359268 676.51391983 C-440.06233393 701.92090831 -431.92245143 726.49894685 -421.9409523 750.49802017 C-421.67950424 751.12669998 -421.41805618 751.75537979 -421.14868546 752.4031105 C-413.2025911 771.47144936 -404.12879709 789.4736968 -393.6909523 807.31052017 C-393.22962906 808.10313248 -392.76830582 808.89574478 -392.29300308 809.71237564 C-386.75176444 819.18199704 -380.75072437 828.29190185 -374.5034523 837.31052017 C-373.85013931 838.25411392 -373.19682632 839.19770767 -372.52371597 840.16989517 C-368.1449977 846.41780053 -363.50965933 852.3975251 -358.6909523 858.31052017 C-357.61039407 859.6611785 -356.53089369 861.01268412 -355.45267105 862.36520767 C-349.2425619 870.10179084 -342.88096576 877.59005332 -336.08548355 884.81882095 C-334.60902909 886.39815162 -333.14856835 887.99113734 -331.6909523 889.58786392 C-323.73883416 898.29116348 -315.70426211 906.87957414 -306.7300148 914.54880142 C-304.46403 916.50657756 -302.26951736 918.53280965 -300.0659523 920.56052017 C-294.47165521 925.601348 -288.59290151 930.22141729 -282.62991714 934.81296158 C-280.62847536 936.35877421 -278.63796173 937.91795459 -276.64798355 939.47848892 C-266.65345645 947.27333083 -256.36867741 954.48301467 -245.6909523 961.31052017 C-244.9789064 961.7663649 -244.2668605 962.22220963 -243.53323746 962.69186783 C-224.89019977 974.53934135 -205.14768546 985.91511309 -184.6909523 994.31052017 C-183.80278824 994.68225357 -182.91462418 995.05398697 -181.99954605 995.43698502 C-150.46731309 1008.61694017 -119.1949134 1018.57354974 -85.6909523 1025.31052017 C-84.20281021 1025.61651138 -84.20281021 1025.61651138 -82.68460464 1025.92868423 C-69.16825669 1028.68941057 -55.76605221 1030.21135104 -41.99905777 1031.07687759 C-39.6909523 1031.31052017 -39.6909523 1031.31052017 -37.94891739 1031.81505203 C-35.01687156 1032.45843456 -32.2579721 1032.45382876 -29.25540543 1032.47165298 C-27.28924271 1032.4860643 -27.28924271 1032.4860643 -25.28335953 1032.50076675 C-23.84630892 1032.50562588 -22.40925625 1032.50990193 -20.9722023 1032.51364517 C-19.87170799 1032.51788624 -19.87170799 1032.51788624 -18.74898148 1032.52221298 C-14.83933531 1032.53722812 -10.92972601 1032.54643331 -7.02005386 1032.55075455 C-3.8435008 1032.555079 -0.66722863 1032.56872703 2.50924301 1032.59177017 C22.6597323 1032.73498317 42.30969893 1032.11812021 62.3090477 1029.31052017 C63.07509323 1029.20338699 63.84113876 1029.09625381 64.6303978 1028.98587418 C68.56384049 1028.4180259 72.46827376 1027.74369577 76.3715477 1026.99802017 C77.50817856 1026.78709732 78.64480942 1026.57617447 79.81588364 1026.35886002 C100.63824416 1022.42561997 121.07173805 1017.60603121 141.3090477 1011.31052017 C143.15949692 1010.73817642 143.15949692 1010.73817642 145.04732895 1010.15427017 C149.73885683 1008.64519246 154.30109008 1006.93474337 158.84420395 1005.02536392 C159.89591782 1004.58418228 160.94763168 1004.14300064 162.03121567 1003.68844986 C163.65374252 1003.00637466 163.65374252 1003.00637466 165.3090477 1002.31052017 C166.34303696 1001.8790065 167.37702621 1001.44749283 168.44234848 1001.00290298 C190.24416752 991.90378263 210.87081736 982.18120951 231.3090477 970.31052017 C232.02866684 969.89656998 232.74828598 969.48261978 233.48971176 969.05612564 C248.79666318 960.23873967 263.34827634 950.1225306 277.3090477 939.31052017 C277.84271957 938.90156509 278.37639145 938.49261002 278.9262352 938.07126236 C299.37711045 922.39147263 319.60166195 905.07138818 336.4106102 885.48630142 C338.57649775 883.0039982 340.81781727 880.59996872 343.0590477 878.18552017 C348.39662514 872.33689808 353.23743637 866.15784253 358.07320786 859.8930397 C359.71547071 857.79008676 361.42096457 855.74144903 363.1215477 853.68552017 C382.25229747 829.75256179 398.00237408 802.8096285 411.35006332 775.28171158 C412.29903833 773.33109442 413.26455488 771.38928542 414.2309227 769.44723892 C420.02136588 757.64269362 424.65301761 745.41027487 429.2621727 733.10519791 C429.89807792 731.40762163 430.53768968 729.71141949 431.1840477 728.01779556 C432.83756885 723.67782712 434.30860143 719.30860362 435.6840477 714.87302017 C436.06303207 713.65743423 436.44201645 712.4418483 436.8324852 711.18942642 C437.32563591 709.56341616 437.81763541 707.93705667 438.3090477 706.31052017 C438.68303696 705.09146988 439.05702621 703.87241959 439.44234848 702.61642838 C442.57433665 692.29367912 445.17067059 681.91853241 447.4340477 671.37302017 C447.69317947 670.1755365 447.69317947 670.1755365 447.95754623 668.95386124 C450.75615069 655.93259908 452.85524488 642.96227304 453.99312973 629.68112564 C454.22749574 627.18061786 454.50011357 624.70073931 454.80855942 622.20944595 C456.66938083 606.60817665 456.71059327 591.00122257 456.6840477 575.31052017 C456.68351395 574.60309677 456.68298019 573.89567337 456.68243027 573.1668129 C456.66115672 550.6806749 456.17745977 528.51154704 452.3090477 506.31052017 C452.17093674 505.51357742 452.03282578 504.71663467 451.89052963 503.89554214 C448.18715723 482.74455902 443.75684236 461.81061334 437.3090477 441.31052017 C436.90275131 440.00872818 436.90275131 440.00872818 436.48824692 438.68063736 C434.1138321 431.14276699 431.67599686 423.68606536 428.2856102 416.53317642 C427.05825441 413.73971465 426.10547498 410.88621487 425.1215477 407.99802017 C421.77366746 398.50387955 417.59683568 389.41225633 413.3090477 380.31052017 C412.90444321 379.44926529 412.49983871 378.58801041 412.08297348 377.70065689 C386.98806334 324.77087205 348.42555917 269.56836906 301.75826645 233.26364517 C299.08196258 231.12943156 296.61612087 228.84151875 294.1215477 226.49802017 C287.92452191 220.81009848 281.2620491 215.84348482 274.47115707 210.89011002 C272.28993453 209.29655651 270.11952007 207.68904842 267.9496727 206.08005142 C252.5814594 194.75253801 236.56598058 184.6461968 219.74459457 175.61862564 C218.06068264 174.71421504 216.37987918 173.80400153 214.70162582 172.88913345 C191.797784 160.42191302 167.95676584 150.75579447 143.3090477 142.31052017 C142.13761215 141.90470718 140.96617661 141.4988942 139.75924301 141.08078384 C62.47228324 114.72109134 -22.3630677 112.78041253 -101.6909523 130.31052017 Z " fill="#B59F5B" transform="translate(959.6909523010254,383.68947982788086)"/>
<path d="M0 0 C11.24808749 10.39917523 17.37934263 24.48132529 18.96227562 39.60011089 C19.10186496 43.21190552 19.128432 46.80466016 19.10450745 50.41905212 C19.10984954 51.79828569 19.11692468 53.17751342 19.1255545 54.55673033 C19.14398879 58.30020432 19.13794434 62.04327755 19.12740147 65.78676689 C19.12035415 69.84209573 19.13644893 73.89734674 19.1493988 77.95265198 C19.17095196 85.87890336 19.17093436 93.80501068 19.16277326 101.73128169 C19.15645316 108.17816896 19.15762865 114.62501447 19.16404533 121.07190132 C19.16494699 121.99222006 19.16584864 122.9125388 19.16677762 123.86074599 C19.16862897 125.73082928 19.17049153 127.60091257 19.17236518 129.47099585 C19.1889133 146.97545631 19.18024983 164.47983598 19.1633796 181.98429156 C19.14868444 197.97078607 19.16331377 213.9570926 19.19214977 229.94356292 C19.22159726 246.39259603 19.23250052 262.84154254 19.22296757 279.29060084 C19.2219451 281.15380735 19.22095049 283.01701387 19.21998405 284.88022041 C19.21926947 286.25502534 19.21926947 286.25502534 19.21854045 287.65760411 C19.21638343 294.08987925 19.22614226 300.52207171 19.24075508 306.95432854 C19.25833856 314.80308689 19.25807518 322.65160574 19.23540343 330.50035494 C19.22431572 334.49843907 19.22097306 338.49610216 19.23970413 342.49416733 C19.37363437 373.35278352 19.37363437 373.35278352 13.58984375 386.04296875 C13.11322076 387.08978286 12.63659777 388.13659697 12.14553165 389.21513271 C5.73252771 402.49035575 -5.78996936 412.64186016 -19.41015625 418.04296875 C-37.05025205 423.86609715 -53.1563687 423.87356711 -70.09765625 415.35546875 C-86.11081813 406.04549091 -95.65290076 391.36343137 -100.54777348 373.8919642 C-101.90685263 367.82610847 -101.95893169 361.95403347 -101.91136169 355.76022339 C-101.91526567 354.37900381 -101.92091483 352.99778827 -101.92813259 351.61658204 C-101.94274771 347.86310808 -101.93279038 344.11005962 -101.91839588 340.35660005 C-101.90720982 336.29248235 -101.91925364 332.22842066 -101.92823792 328.16430664 C-101.94212004 320.21986168 -101.93465189 312.27557644 -101.91956233 304.33113919 C-101.90264277 295.06829704 -101.90591991 285.80549402 -101.90965641 276.54264118 C-101.91552562 260.0103289 -101.90139951 243.47809295 -101.87670898 226.94580078 C-101.85278321 210.92363627 -101.84570897 194.9015737 -101.85620117 178.87939453 C-101.86762322 161.40613149 -101.86952515 143.93291551 -101.85510308 126.45965302 C-101.85357733 124.59481756 -101.85205697 122.7299821 -101.85054207 120.86514664 C-101.84978425 119.94775218 -101.84902644 119.03035772 -101.84824566 118.08516344 C-101.84351339 111.63651981 -101.8453467 105.18789729 -101.84960747 98.739254 C-101.85454572 90.87649338 -101.84849801 83.01382891 -101.82871317 75.15109025 C-101.8188756 71.14348288 -101.81369766 67.13602157 -101.82160568 63.12840652 C-101.82870901 59.45328661 -101.82175046 55.77846025 -101.80400205 52.10337879 C-101.79809935 50.15842248 -101.806735 48.2134384 -101.81604856 46.26849544 C-101.68905041 28.5320725 -95.78365858 13.24327799 -83.2421875 0.671875 C-76.68842301 -5.41182638 -69.74801753 -9.76380778 -61.41015625 -12.95703125 C-60.39953125 -13.34890625 -59.38890625 -13.74078125 -58.34765625 -14.14453125 C-37.20706506 -19.99192881 -16.64405821 -13.51486736 0 0 Z " fill="#B59F5B" transform="translate(1001.41015625,823.95703125)"/>
<path d="M0 0 C2.76536681 1.66303438 5.32529284 3.44013459 7.89453125 5.390625 C8.67183594 5.96296875 9.44914063 6.5353125 10.25 7.125 C22.4574338 16.95818248 29.55274714 31.78179641 31.33203125 47.17578125 C31.90234512 64.12479664 26.60147669 80.56732465 15.20703125 93.203125 C10.0591602 98.6782662 4.5222442 102.80514094 -2.10546875 106.390625 C-3.09546875 106.968125 -4.08546875 107.545625 -5.10546875 108.140625 C-19.22221629 114.02260314 -35.61509711 114.54479516 -50.10546875 109.390625 C-66.04190294 102.50474184 -78.51466519 90.52673028 -85.10546875 74.390625 C-91.218804 58.28817986 -90.76292094 43.14323284 -84.10546875 27.390625 C-76.15155587 11.92682835 -64.16188694 1.73243514 -48.10546875 -4.609375 C-47.23148438 -4.97546875 -46.3575 -5.3415625 -45.45703125 -5.71875 C-30.50522413 -9.69195749 -13.56211621 -7.02841746 0 0 Z " fill="#B59F5B" transform="translate(989.10546875,625.609375)"/>
<path d="M0 0 C0 3.97054597 -1.3139381 5.16471244 -4 8 C-6.54520428 9.00265623 -8.23056888 9 -11 9 C-7.37 6.03 -3.74 3.06 0 0 Z " fill="#B59F5B" transform="translate(1246,1315)"/>
<path d="M0 0 C0.66 0.33 1.32 0.66 2 1 C0.625 3 0.625 3 -1 5 C-1.66 5 -2.32 5 -3 5 C-3.33 5.66 -3.66 6.32 -4 7 C-5.30915279 8.03145371 -6.64082143 9.03542166 -8 10 C-8.66 9.67 -9.32 9.34 -10 9 C-6.7 6.03 -3.4 3.06 0 0 Z " fill="#B59F5B" transform="translate(925,629)"/>
<path d="M0 0 C0.66 0.66 1.32 1.32 2 2 C1.625 4.625 1.625 4.625 1 7 C-0.32 7.33 -1.64 7.66 -3 8 C-1.125 2.25 -1.125 2.25 0 0 Z " fill="#B59F5B" transform="translate(452,687)"/>
<path d="M0 0 C0 2.62113708 -0.31292445 4.50935112 -1 7 C-1.99 7 -2.98 7 -4 7 C-4.33 6.01 -4.66 5.02 -5 4 C-3.35 2.68 -1.7 1.36 0 0 Z " fill="#B59F5B" transform="translate(599,511)"/>
<path d="M0 0 C0.66 0.33 1.32 0.66 2 1 C-2.75 5.875 -2.75 5.875 -5 7 C-5.66 6.34 -6.32 5.68 -7 5 C-4.69 3.35 -2.38 1.7 0 0 Z " fill="#B59F5B" transform="translate(1233,1325)"/>
<path d="M0 0 C-1.98 1.32 -3.96 2.64 -6 4 C-7.32 3.34 -8.64 2.68 -10 2 C-8.71211992 1.46987262 -7.41953322 0.9511671 -6.125 0.4375 C-5.40570312 0.14746094 -4.68640625 -0.14257812 -3.9453125 -0.44140625 C-2 -1 -2 -1 0 0 Z " fill="#B59F5B" transform="translate(773,416)"/>
<path d="M0 0 C1.5625 1.25 1.5625 1.25 3 3 C2.6875 5.1875 2.6875 5.1875 2 7 C0.4375 5.75 0.4375 5.75 -1 4 C-0.6875 1.8125 -0.6875 1.8125 0 0 Z " fill="#B59F5B" transform="translate(546,1356)"/>
</svg>
