<?xml version="1.0" encoding="UTF-8"?>
<svg id="Layer_2" data-name="Layer 2" xmlns="http://www.w3.org/2000/svg" viewBox="0 0 720.82 283.57">
  <defs>
    <style>
      .cls-1, .cls-2 {
        fill: #fff;
      }

      .cls-2 {
        fill-rule: evenodd;
      }
    </style>
  </defs>
  <g id="Layer_1-2" data-name="Layer 1">
    <g>
      <path class="cls-2" d="M370.15,99.53h20.51c18.32,0,33.31-18.61,33.31-41.35s-14.99-41.36-33.31-41.36h-20.51v82.71ZM370.15,0h46.07c35.39,0,64.35,26.18,64.35,58.17s-28.95,58.18-64.35,58.18h-51.61c-11.66,19.71-28.62,35.16-47.52,49.07V46.71c0-38.97-25.98-46.71-25.98-46.71h79.03ZM79.04,99.53h20.51c18.32,0,33.31-18.61,33.31-41.35s-14.99-41.36-33.31-41.36h-20.51v82.71ZM79.04,0h46.07c35.39,0,64.34,26.18,64.34,58.17s-28.95,58.18-64.34,58.18h-46.07v47.51c0,38.96,25.97,46.71,25.97,46.71H0s25.98-7.74,25.98-46.71V46.71C25.98,7.74,0,0,0,0h79.04ZM552.5,193.75h24.91c18.32,0,33.32-18.61,33.32-41.36s-14.23-40.4-31.92-41.32h-26.31v82.67ZM631.38,100.23c21.25,9.53,35.94,29.37,35.94,52.16,0,32-28.95,58.18-64.34,58.18h-129.52s25.98-7.74,25.98-46.71V46.71c0-38.97-25.98-46.71-25.98-46.71h121.56c33.79,0,61.43,24.99,61.43,55.54,0,18.27-9.89,34.55-25.08,44.69ZM552.5,94.22h18.94c17.11-.52,30.99-17.3,30.99-38.68s-14.31-38.38-31.8-38.38h-18.12v77.06ZM697.58,165.48c12.83,0,23.24,10.4,23.24,23.24s-10.4,23.24-23.24,23.24-23.24-10.41-23.24-23.24,10.4-23.24,23.24-23.24ZM261.15,0h-79.03s25.98,7.74,25.98,46.71v117.14c0,38.96-25.98,46.7-25.98,46.7h64.39v.02h122.69v-67.43c-6.71,9.83-14.88,19.63-24.24,27.91-14.71,13.02-32.29,21.96-52.19,22.36-5.86.12-11.66-.56-17.06-2.24-7.68-2.39-14.04-7.12-14.56-15.98h0V0Z"/>
      <path class="cls-2" d="M425,243.05v32.47h-3.92v-32.47h3.92ZM400.2,256.41c.94-1.09,2.01-1.95,3.19-2.6,1.18-.65,2.54-.97,4.08-.97,1.31,0,2.49.25,3.54.75,1.05.5,1.94,1.22,2.67,2.17.74.95,1.3,2.1,1.69,3.45.39,1.35.58,2.87.58,4.56,0,1.81-.22,3.45-.66,4.94-.44,1.48-1.07,2.75-1.9,3.8-.83,1.05-1.84,1.87-3.04,2.45-1.19.58-2.53.87-4.01.87s-2.71-.28-3.71-.83c-1.01-.55-1.89-1.33-2.64-2.34l-.2,2.03c-.12.56-.46.84-1.01.84h-2.54v-32.47h3.95v13.36ZM400.2,270.14c.72.97,1.51,1.65,2.37,2.05.86.4,1.8.6,2.83.6,2.1,0,3.71-.74,4.83-2.23,1.12-1.49,1.67-3.7,1.67-6.64,0-2.73-.49-4.75-1.48-6.03-.99-1.29-2.41-1.92-4.25-1.92-1.28,0-2.39.29-3.34.88-.95.59-1.83,1.42-2.64,2.49v10.8ZM373.77,256.34c1.23-1.19,2.56-2.08,3.99-2.67,1.43-.59,3.01-.88,4.74-.88,1.25,0,2.36.21,3.33.62.97.41,1.79.98,2.45,1.72.66.74,1.16,1.62,1.5,2.67.34,1.04.51,2.19.51,3.44v14.28h-1.74c-.38,0-.68-.07-.88-.19-.21-.12-.37-.37-.48-.74l-.44-2.12c-.59.55-1.16,1.02-1.72,1.44-.56.42-1.15.77-1.76,1.06-.62.29-1.27.51-1.97.66-.7.15-1.48.24-2.33.24s-1.68-.12-2.45-.37c-.76-.24-1.43-.6-1.99-1.09-.57-.48-1.01-1.1-1.34-1.84-.33-.74-.5-1.62-.5-2.63,0-.88.24-1.73.73-2.55.49-.82,1.27-1.54,2.36-2.17,1.09-.63,2.51-1.15,4.25-1.56,1.75-.4,3.89-.63,6.44-.69v-1.74c0-1.73-.37-3.05-1.12-3.94-.75-.89-1.84-1.33-3.29-1.33-.97,0-1.78.12-2.43.36-.65.24-1.22.52-1.7.82-.48.3-.89.57-1.24.82-.34.24-.69.37-1.03.37-.27,0-.49-.07-.68-.21-.19-.14-.35-.31-.48-.51l-.71-1.26ZM386.44,265.47c-1.81.06-3.34.2-4.61.43-1.27.23-2.31.53-3.11.9-.8.37-1.38.8-1.74,1.3-.36.5-.54,1.06-.54,1.68s.1,1.09.29,1.52c.19.43.46.77.79,1.04.33.27.72.47,1.17.6.45.13.93.19,1.44.19.69,0,1.32-.07,1.9-.21.57-.14,1.12-.34,1.62-.6.51-.27.99-.58,1.45-.95.46-.37.91-.79,1.35-1.26v-4.63ZM353.44,256.43c.48-.54,1-1.04,1.54-1.48.54-.44,1.13-.82,1.73-1.14.61-.32,1.26-.56,1.94-.73.68-.17,1.42-.25,2.21-.25,1.22,0,2.3.2,3.23.6.93.4,1.71.98,2.34,1.72.63.74,1.09,1.64,1.42,2.68.32,1.04.48,2.2.48,3.46v14.22h-3.95v-14.22c0-1.69-.38-3.01-1.15-3.94-.77-.93-1.95-1.4-3.52-1.4-1.16,0-2.24.28-3.25.84-1.01.56-1.94,1.32-2.79,2.27v16.45h-3.95v-22.33h2.36c.56,0,.9.27,1.04.82l.31,2.42ZM344.14,246.18c0,.38-.07.73-.23,1.07-.15.33-.36.62-.62.88-.26.26-.56.46-.9.61-.34.15-.71.22-1.09.22s-.74-.07-1.07-.22c-.33-.15-.63-.35-.88-.61-.25-.26-.45-.55-.6-.88-.15-.33-.22-.68-.22-1.07s.07-.75.22-1.09c.15-.35.35-.65.6-.9.25-.26.54-.46.88-.6.33-.15.68-.22,1.07-.22s.75.07,1.09.22c.35.15.65.34.9.6.26.26.46.56.62.9.15.35.23.71.23,1.09ZM343.3,253.19v22.33h-3.92v-22.33h3.92ZM316.67,256.34c1.23-1.19,2.56-2.08,3.99-2.67,1.43-.59,3.01-.88,4.74-.88,1.25,0,2.36.21,3.33.62.97.41,1.79.98,2.45,1.72.66.74,1.16,1.62,1.5,2.67.34,1.04.51,2.19.51,3.44v14.28h-1.74c-.38,0-.68-.07-.88-.19-.21-.12-.37-.37-.48-.74l-.44-2.12c-.59.55-1.16,1.02-1.72,1.44-.56.42-1.15.77-1.76,1.06-.62.29-1.27.51-1.97.66-.7.15-1.48.24-2.33.24s-1.68-.12-2.45-.37c-.76-.24-1.43-.6-1.99-1.09-.57-.48-1.01-1.1-1.35-1.84-.33-.74-.5-1.62-.5-2.63,0-.88.24-1.73.73-2.55.49-.82,1.27-1.54,2.36-2.17,1.09-.63,2.51-1.15,4.26-1.56,1.75-.4,3.89-.63,6.44-.69v-1.74c0-1.73-.37-3.05-1.12-3.94-.75-.89-1.84-1.33-3.29-1.33-.97,0-1.78.12-2.43.36-.65.24-1.22.52-1.7.82-.48.3-.89.57-1.24.82-.34.24-.69.37-1.03.37-.27,0-.49-.07-.68-.21-.19-.14-.35-.31-.48-.51l-.71-1.26ZM329.35,265.47c-1.81.06-3.34.2-4.61.43-1.27.23-2.31.53-3.11.9-.8.37-1.38.8-1.74,1.3-.36.5-.54,1.06-.54,1.68s.09,1.09.29,1.52c.19.43.46.77.79,1.04.33.27.72.47,1.17.6.45.13.93.19,1.44.19.69,0,1.32-.07,1.9-.21.57-.14,1.12-.34,1.62-.6.51-.27.99-.58,1.45-.95.46-.37.91-.79,1.35-1.26v-4.63ZM308.29,275.87c-1.76,0-3.12-.49-4.06-1.48-.95-.98-1.43-2.4-1.43-4.26v-13.67h-2.69c-.23,0-.43-.07-.6-.21-.16-.14-.24-.35-.24-.65v-1.57l3.66-.46.9-6.9c.04-.22.15-.4.3-.54.15-.14.35-.21.6-.21h1.98v7.69h6.46v2.84h-6.46v13.4c0,.94.23,1.64.68,2.09.45.45,1.04.68,1.76.68.41,0,.77-.06,1.07-.17.3-.11.56-.23.78-.36.22-.13.41-.26.57-.37.15-.11.29-.16.4-.16.21,0,.39.12.55.37l1.15,1.87c-.68.63-1.49,1.12-2.45,1.49-.95.36-1.94.54-2.95.54ZM295.35,256.87c-.18.32-.45.49-.82.49-.22,0-.47-.08-.75-.24-.28-.16-.62-.35-1.02-.54-.4-.2-.89-.38-1.45-.55-.56-.17-1.22-.25-1.98-.25-.66,0-1.26.08-1.79.25-.53.17-.98.4-1.35.7-.38.29-.66.63-.86,1.02-.2.39-.3.82-.3,1.27,0,.57.17,1.05.5,1.43.33.38.76.71,1.31.99.54.28,1.16.52,1.85.73.69.21,1.4.44,2.13.68.73.24,1.43.51,2.12.81.69.29,1.31.66,1.85,1.1.54.44.98.98,1.32,1.62.33.64.49,1.41.49,2.31,0,1.03-.18,1.98-.55,2.85-.37.87-.91,1.63-1.63,2.27-.72.64-1.6,1.15-2.65,1.51-1.04.37-2.25.55-3.62.55-1.56,0-2.97-.26-4.23-.76-1.26-.51-2.34-1.15-3.22-1.95l.92-1.5c.12-.19.26-.34.42-.44.16-.1.37-.15.62-.15.26,0,.54.1.84.31.29.2.65.43,1.07.68.42.25.93.48,1.53.68.6.2,1.35.31,2.25.31.76,0,1.43-.1,2.01-.3.57-.2,1.05-.46,1.43-.8.38-.34.67-.73.85-1.17.18-.44.27-.91.27-1.41,0-.62-.16-1.13-.49-1.54-.33-.4-.77-.75-1.32-1.04-.54-.29-1.16-.54-1.86-.75-.7-.21-1.41-.43-2.14-.67-.73-.24-1.44-.51-2.14-.81-.7-.3-1.32-.68-1.87-1.13-.54-.46-.98-1.02-1.31-1.69-.33-.67-.5-1.48-.5-2.43,0-.85.18-1.68.53-2.46.35-.79.87-1.48,1.54-2.07.68-.59,1.51-1.07,2.49-1.42.98-.35,2.11-.53,3.37-.53,1.47,0,2.79.23,3.96.69,1.17.46,2.17,1.1,3.03,1.91l-.88,1.43ZM276.13,253.19v22.33h-2.34c-.56,0-.91-.27-1.06-.82l-.31-2.4c-.97,1.07-2.06,1.93-3.26,2.59-1.2.65-2.59.99-4.14.99-1.22,0-2.29-.21-3.23-.61-.93-.4-1.72-.97-2.35-1.7-.63-.73-1.1-1.62-1.42-2.67-.32-1.04-.48-2.2-.48-3.46v-14.24h3.92v14.24c0,1.69.39,3,1.16,3.92.77.92,1.95,1.39,3.53,1.39,1.16,0,2.25-.28,3.26-.83,1.01-.55,1.93-1.31,2.79-2.28v-16.45h3.92ZM251.38,248.87c-.13.22-.27.38-.43.49-.15.11-.35.17-.57.17-.25,0-.54-.13-.88-.38-.34-.25-.76-.53-1.26-.83-.51-.3-1.12-.57-1.83-.82-.71-.25-1.58-.37-2.59-.37-.96,0-1.79.12-2.52.38-.73.26-1.34.61-1.83,1.05-.49.44-.87.95-1.12,1.55-.25.6-.38,1.24-.38,1.93,0,.88.22,1.61.65,2.19.43.58,1.01,1.08,1.72,1.49.71.41,1.52.76,2.43,1.07.9.3,1.83.62,2.78.94.95.32,1.87.68,2.78,1.09.9.4,1.71.92,2.43,1.54.71.62,1.29,1.37,1.72,2.27.43.9.65,2,.65,3.31,0,1.38-.23,2.67-.7,3.89-.47,1.21-1.15,2.27-2.06,3.17-.9.9-2.01,1.6-3.33,2.12-1.32.51-2.81.77-4.49.77-2.06,0-3.92-.37-5.6-1.12-1.67-.74-3.11-1.74-4.3-3.01l1.24-2.03c.12-.16.26-.3.43-.41.17-.11.35-.16.56-.16.19,0,.41.07.65.23.24.15.51.35.82.59.31.23.66.49,1.06.77.4.28.85.54,1.36.77.51.24,1.08.43,1.73.58.65.15,1.37.24,2.18.24,1.01,0,1.92-.14,2.71-.42.79-.28,1.47-.67,2.02-1.18.55-.51.97-1.11,1.27-1.81.29-.71.44-1.49.44-2.36,0-.96-.21-1.74-.65-2.35-.43-.61-1.01-1.12-1.71-1.53-.71-.41-1.51-.76-2.43-1.05-.91-.29-1.84-.58-2.78-.88-.94-.3-1.87-.65-2.78-1.04-.91-.4-1.72-.91-2.43-1.54-.7-.63-1.27-1.43-1.7-2.37-.43-.95-.65-2.11-.65-3.51,0-1.12.22-2.2.65-3.24.43-1.04,1.07-1.97,1.9-2.78.83-.81,1.85-1.46,3.06-1.94,1.21-.48,2.6-.73,4.18-.73,1.76,0,3.37.28,4.82.84,1.45.56,2.72,1.37,3.82,2.42l-1.04,2.03ZM218.92,254.07v1.46c0,.48-.31.79-.93.92l-2.53.33c.5.97.75,2.04.75,3.22,0,1.09-.21,2.07-.62,2.96-.42.89-1,1.65-1.73,2.29-.74.63-1.62,1.12-2.65,1.46-1.03.34-2.15.51-3.35.51-1.04,0-2.03-.13-2.95-.38-.47.3-.83.6-1.08.93-.25.33-.37.67-.37,1.01,0,.53.22.93.65,1.2.43.27,1,.47,1.7.59.71.12,1.51.19,2.42.22.9.03,1.83.07,2.78.14.95.07,1.87.18,2.78.35.9.16,1.7.43,2.41.79.7.37,1.28.87,1.71,1.52.43.65.65,1.48.65,2.51,0,.96-.24,1.88-.71,2.78-.48.9-1.17,1.69-2.07,2.39-.9.7-1.99,1.26-3.29,1.68-1.3.42-2.77.63-4.4.63s-3.06-.16-4.28-.48c-1.22-.32-2.23-.76-3.04-1.3-.81-.54-1.41-1.18-1.82-1.89-.4-.71-.61-1.45-.61-2.23,0-1.1.34-2.04,1.04-2.8.69-.76,1.64-1.37,2.84-1.83-.66-.29-1.18-.69-1.57-1.18-.39-.49-.59-1.15-.59-1.99,0-.32.06-.66.18-1.01.12-.35.3-.69.54-1.04.24-.34.54-.67.89-.98.35-.31.76-.58,1.23-.82-1.1-.62-1.96-1.44-2.58-2.46-.62-1.02-.93-2.2-.93-3.56,0-1.09.21-2.08.63-2.97.42-.89,1-1.65,1.75-2.27.75-.62,1.65-1.1,2.68-1.44,1.04-.34,2.17-.51,3.4-.51.97,0,1.87.1,2.71.32.84.21,1.6.53,2.29.94h6.06ZM214.93,276.73c0-.54-.15-.98-.46-1.32-.31-.34-.72-.6-1.24-.79-.52-.19-1.13-.33-1.82-.41-.69-.08-1.42-.14-2.19-.18-.77-.04-1.56-.09-2.35-.13-.79-.05-1.56-.12-2.29-.22-.82.38-1.49.86-2.01,1.44-.52.58-.79,1.26-.79,2.04,0,.5.13.96.39,1.4.26.43.65.81,1.18,1.12.53.32,1.2.57,2,.75.8.18,1.74.28,2.83.28s2.01-.1,2.84-.29c.84-.19,1.55-.46,2.13-.82.58-.35,1.02-.77,1.33-1.26.31-.48.46-1.02.46-1.61ZM207.86,264.61c.79,0,1.49-.11,2.09-.33.6-.22,1.11-.53,1.52-.93.41-.4.72-.87.93-1.43.21-.55.31-1.15.31-1.81,0-1.37-.41-2.45-1.24-3.26-.83-.81-2.04-1.21-3.61-1.21s-2.79.4-3.62,1.21c-.83.81-1.25,1.9-1.25,3.26,0,.66.11,1.26.32,1.81.21.55.52,1.03.93,1.43.41.4.92.71,1.52.93.6.22,1.3.33,2.09.33ZM179.18,256.43c.48-.54,1-1.04,1.54-1.48.54-.44,1.12-.82,1.73-1.14.61-.32,1.26-.56,1.94-.73.68-.17,1.42-.25,2.21-.25,1.22,0,2.3.2,3.23.6.93.4,1.71.98,2.34,1.72.62.74,1.09,1.64,1.42,2.68.32,1.04.48,2.2.48,3.46v14.22h-3.95v-14.22c0-1.69-.38-3.01-1.15-3.94-.77-.93-1.95-1.4-3.52-1.4-1.16,0-2.24.28-3.25.84-1.01.56-1.94,1.32-2.79,2.27v16.45h-3.95v-22.33h2.36c.56,0,.9.27,1.04.82l.31,2.42ZM169.87,246.18c0,.38-.07.73-.23,1.07-.15.33-.36.62-.62.88-.26.26-.56.46-.9.61-.35.15-.71.22-1.1.22s-.74-.07-1.07-.22c-.33-.15-.62-.35-.87-.61-.25-.26-.45-.55-.6-.88-.15-.33-.22-.68-.22-1.07s.07-.75.22-1.09c.15-.35.35-.65.6-.9.25-.26.54-.46.87-.6.33-.15.68-.22,1.07-.22s.75.07,1.1.22c.34.15.65.34.9.6.26.26.46.56.62.9.15.35.23.71.23,1.09ZM169.04,253.19v22.33h-3.92v-22.33h3.92ZM143.93,256.65c.94-1.16,2.03-2.09,3.26-2.8,1.23-.71,2.65-1.06,4.23-1.06,1.29,0,2.46.24,3.51.74,1.04.49,1.93,1.22,2.67,2.18.74.96,1.3,2.16,1.7,3.59.4,1.42.6,3.06.6,4.92,0,1.65-.22,3.17-.66,4.59-.44,1.42-1.07,2.65-1.9,3.68-.83,1.04-1.84,1.85-3.04,2.45-1.2.6-2.55.9-4.05.9-1.37,0-2.54-.24-3.51-.7-.98-.46-1.84-1.1-2.59-1.93v9.88h-3.95v-29.89h2.36c.56,0,.9.27,1.04.82l.35,2.64ZM144.12,270.14c.72.97,1.51,1.65,2.36,2.05.85.4,1.81.6,2.87.6,2.09,0,3.69-.74,4.81-2.23,1.12-1.49,1.67-3.6,1.67-6.35,0-1.45-.13-2.7-.38-3.75-.26-1.04-.63-1.9-1.12-2.57-.48-.67-1.08-1.15-1.79-1.46-.7-.31-1.51-.46-2.4-.46-1.28,0-2.4.29-3.36.88-.96.59-1.85,1.42-2.66,2.49v10.8ZM124.59,272.77c2.2,0,3.85-.74,4.94-2.22,1.09-1.48,1.63-3.53,1.63-6.18s-.54-4.73-1.63-6.22c-1.09-1.48-2.73-2.23-4.94-2.23-1.12,0-2.09.19-2.92.57-.83.38-1.52.93-2.07,1.65-.55.72-.96,1.6-1.23,2.65-.27,1.05-.41,2.24-.41,3.56,0,2.64.55,4.7,1.65,6.18,1.1,1.48,2.76,2.22,4.99,2.22ZM124.59,252.84c1.63,0,3.1.27,4.41.82,1.31.54,2.42,1.32,3.35,2.31.93,1,1.64,2.2,2.13,3.62.49,1.42.74,3.01.74,4.75s-.24,3.35-.74,4.76c-.49,1.41-1.2,2.62-2.13,3.62-.93,1-2.04,1.76-3.35,2.3-1.31.54-2.78.81-4.41.81s-3.12-.27-4.44-.81c-1.32-.54-2.44-1.3-3.37-2.3-.93-1-1.63-2.21-2.12-3.62-.49-1.41-.74-3-.74-4.76s.25-3.34.74-4.75c.49-1.42,1.2-2.62,2.12-3.62.93-1,2.05-1.77,3.37-2.31,1.32-.54,2.79-.82,4.44-.82ZM108.83,243.05v32.47h-3.92v-32.47h3.92ZM99.62,272.39c-.49.59-1.07,1.09-1.74,1.53-.68.43-1.4.79-2.17,1.07-.77.28-1.57.49-2.39.63-.82.14-1.64.21-2.45.21-1.54,0-2.96-.27-4.26-.79-1.3-.52-2.42-1.29-3.37-2.29-.95-1.01-1.69-2.25-2.22-3.73-.53-1.49-.79-3.19-.79-5.12,0-1.56.24-3.01.72-4.36.48-1.35,1.16-2.53,2.06-3.52.9-.99,1.99-1.77,3.28-2.34,1.29-.57,2.75-.85,4.37-.85,1.34,0,2.58.22,3.72.67,1.14.45,2.12,1.09,2.95,1.94.83.85,1.48,1.89,1.95,3.13.47,1.24.71,2.66.71,4.25,0,.62-.07,1.03-.2,1.23-.13.21-.38.31-.75.31h-14.93c.04,1.41.24,2.64.59,3.68.35,1.04.82,1.91,1.44,2.61.62.7,1.35,1.22,2.2,1.57.85.35,1.81.52,2.87.52.98,0,1.84-.12,2.55-.34.71-.23,1.32-.47,1.84-.74.51-.26.95-.51,1.29-.74.35-.23.64-.34.89-.34.32,0,.57.12.75.37l1.1,1.43ZM96.44,261.92c0-.91-.12-1.75-.38-2.51-.26-.76-.63-1.41-1.12-1.96-.49-.55-1.09-.98-1.8-1.28-.71-.3-1.51-.45-2.4-.45-1.88,0-3.36.54-4.46,1.64-1.1,1.09-1.78,2.62-2.04,4.56h12.21ZM78.5,253.19l-9.1,22.33h-3.53l-9.1-22.33h3.2c.32,0,.59.08.79.24.21.16.35.35.42.57l5.67,14.37c.18.55.33,1.07.46,1.59.13.51.26,1.03.38,1.54.12-.51.24-1.03.37-1.54.13-.51.29-1.04.49-1.59l5.73-14.37c.09-.24.24-.43.44-.59.2-.15.45-.23.73-.23h3.06ZM54.69,272.39c-.49.59-1.07,1.09-1.74,1.53-.68.43-1.4.79-2.17,1.07-.77.28-1.57.49-2.39.63-.82.14-1.64.21-2.45.21-1.54,0-2.96-.27-4.26-.79-1.3-.52-2.42-1.29-3.37-2.29-.95-1.01-1.69-2.25-2.22-3.73-.53-1.49-.79-3.19-.79-5.12,0-1.56.24-3.01.72-4.36.48-1.35,1.16-2.53,2.06-3.52.9-.99,1.99-1.77,3.28-2.34,1.29-.57,2.75-.85,4.37-.85,1.34,0,2.58.22,3.72.67,1.14.45,2.12,1.09,2.95,1.94.83.85,1.48,1.89,1.95,3.13.47,1.24.71,2.66.71,4.25,0,.62-.07,1.03-.2,1.23-.13.21-.38.31-.75.31h-14.93c.04,1.41.24,2.64.59,3.68.34,1.04.82,1.91,1.44,2.61.62.7,1.35,1.22,2.2,1.57.85.35,1.81.52,2.87.52.98,0,1.84-.12,2.55-.34.71-.23,1.32-.47,1.84-.74.51-.26.95-.51,1.29-.74.34-.23.64-.34.89-.34.32,0,.57.12.75.37l1.1,1.43ZM51.52,261.92c0-.91-.13-1.75-.38-2.51-.26-.76-.63-1.41-1.12-1.96-.49-.55-1.09-.98-1.8-1.28-.71-.3-1.51-.45-2.4-.45-1.88,0-3.37.54-4.46,1.64-1.09,1.09-1.78,2.62-2.04,4.56h12.21ZM27.27,259.74c0-1.94-.27-3.67-.8-5.2-.53-1.53-1.28-2.82-2.25-3.88-.97-1.06-2.15-1.87-3.53-2.43-1.38-.56-2.92-.84-4.63-.84h-7.52v24.67h7.52c1.71,0,3.25-.28,4.63-.84,1.38-.56,2.56-1.37,3.53-2.42.97-1.05,1.72-2.34,2.25-3.86.53-1.53.8-3.26.8-5.2ZM31.65,259.74c0,2.37-.37,4.52-1.12,6.46-.75,1.94-1.81,3.6-3.17,4.98-1.37,1.38-3,2.45-4.92,3.2-1.92.76-4.04,1.14-6.36,1.14H4.27v-31.59h11.79c2.32,0,4.45.37,6.36,1.13,1.92.76,3.56,1.83,4.92,3.22,1.37,1.39,2.42,3.06,3.17,5,.75,1.94,1.12,4.09,1.12,6.46Z"/>
      <path class="cls-2" d="M715.66,256.87c-.18.32-.45.49-.82.49-.22,0-.47-.08-.75-.24-.28-.16-.62-.35-1.02-.54-.4-.2-.89-.38-1.45-.55-.56-.17-1.22-.25-1.98-.25-.66,0-1.26.08-1.79.25-.53.17-.98.4-1.35.7-.37.29-.66.63-.86,1.02-.2.39-.3.82-.3,1.27,0,.57.17,1.05.5,1.43.33.38.76.71,1.31.99s1.16.52,1.85.73c.69.21,1.4.44,2.13.68.73.24,1.43.51,2.12.81.69.29,1.31.66,1.85,1.1.54.44.98.98,1.32,1.62.33.64.49,1.41.49,2.31,0,1.03-.18,1.98-.55,2.85-.37.87-.91,1.63-1.63,2.27-.72.64-1.6,1.15-2.65,1.51-1.04.37-2.25.55-3.61.55-1.56,0-2.97-.26-4.23-.76-1.26-.51-2.34-1.15-3.22-1.95l.92-1.5c.12-.19.26-.34.42-.44.16-.1.37-.15.62-.15.26,0,.54.1.84.31.29.2.65.43,1.07.68.42.25.93.48,1.53.68.6.2,1.35.31,2.25.31.76,0,1.43-.1,2.01-.3.57-.2,1.05-.46,1.43-.8.38-.34.67-.73.85-1.17.18-.44.27-.91.27-1.41,0-.62-.16-1.13-.49-1.54-.33-.4-.77-.75-1.32-1.04-.54-.29-1.16-.54-1.86-.75-.7-.21-1.41-.43-2.14-.67-.73-.24-1.44-.51-2.14-.81-.7-.3-1.32-.68-1.87-1.13-.54-.46-.98-1.02-1.31-1.69-.33-.67-.5-1.48-.5-2.43,0-.85.18-1.68.53-2.46.35-.79.87-1.48,1.54-2.07.68-.59,1.51-1.07,2.49-1.42.98-.35,2.11-.53,3.37-.53,1.47,0,2.79.23,3.96.69,1.17.46,2.17,1.1,3.03,1.91l-.88,1.43ZM697.5,272.39c-.49.59-1.07,1.09-1.74,1.53-.68.43-1.4.79-2.17,1.07-.77.28-1.57.49-2.39.63-.82.14-1.64.21-2.45.21-1.54,0-2.96-.27-4.26-.79-1.3-.52-2.42-1.29-3.37-2.29-.95-1.01-1.69-2.25-2.22-3.73-.53-1.49-.79-3.19-.79-5.12,0-1.56.24-3.01.72-4.36.48-1.35,1.16-2.53,2.06-3.52.9-.99,1.99-1.77,3.28-2.34,1.29-.57,2.75-.85,4.37-.85,1.34,0,2.58.22,3.72.67,1.14.45,2.12,1.09,2.95,1.94.83.85,1.48,1.89,1.95,3.13.47,1.24.71,2.66.71,4.25,0,.62-.07,1.03-.2,1.23-.13.21-.38.31-.75.31h-14.93c.04,1.41.24,2.64.59,3.68.35,1.04.82,1.91,1.44,2.61.62.7,1.35,1.22,2.2,1.57.85.35,1.81.52,2.87.52.98,0,1.84-.12,2.55-.34.71-.23,1.32-.47,1.84-.74.51-.26.95-.51,1.29-.74.35-.23.64-.34.89-.34.32,0,.57.12.75.37l1.1,1.43ZM694.33,261.92c0-.91-.13-1.75-.38-2.51-.26-.76-.63-1.41-1.12-1.96-.49-.55-1.09-.98-1.8-1.28-.71-.3-1.51-.45-2.4-.45-1.88,0-3.37.54-4.46,1.64-1.09,1.09-1.78,2.62-2.04,4.56h12.21ZM673.91,246.03c0,.38-.07.73-.23,1.07-.15.33-.36.62-.62.87-.26.25-.56.45-.9.6-.34.15-.7.22-1.08.22s-.74-.07-1.07-.22c-.33-.15-.63-.35-.88-.6-.25-.25-.45-.54-.59-.87-.15-.33-.22-.68-.22-1.07s.07-.75.22-1.09c.15-.35.34-.65.59-.9.25-.26.54-.45.88-.6.33-.15.68-.22,1.07-.22s.74.07,1.08.22c.34.15.64.35.9.6.26.26.46.56.62.9.15.34.23.71.23,1.09ZM672.94,275.52h-3.92v-19.05h-11.51v13.4c0,.94.23,1.64.68,2.09.45.45,1.04.68,1.76.68.41,0,.77-.06,1.07-.17.3-.11.56-.23.78-.36.22-.13.41-.26.57-.37.15-.11.29-.16.4-.16.21,0,.39.12.55.37l1.15,1.87c-.68.63-1.49,1.12-2.45,1.49-.95.36-1.94.54-2.95.54-1.76,0-3.12-.49-4.06-1.48-.95-.98-1.43-2.4-1.43-4.26v-13.67h-2.69c-.23,0-.43-.07-.6-.21-.16-.14-.24-.35-.24-.65v-1.57l3.66-.49.9-6.88c.04-.22.15-.4.3-.54.15-.14.35-.21.6-.21h1.98v7.69h15.43v21.89ZM646.62,246.18c0,.38-.07.73-.23,1.07-.15.33-.36.62-.62.88-.26.26-.56.46-.9.61-.34.15-.71.22-1.09.22s-.74-.07-1.07-.22c-.33-.15-.63-.35-.87-.61-.25-.26-.45-.55-.6-.88-.15-.33-.22-.68-.22-1.07s.07-.75.22-1.09c.15-.35.35-.65.6-.9.25-.26.54-.46.87-.6.33-.15.68-.22,1.07-.22s.75.07,1.09.22c.35.15.65.34.9.6.26.26.46.56.62.9.15.35.23.71.23,1.09ZM645.78,253.19v22.33h-3.92v-22.33h3.92ZM620.74,256.43c.48-.54,1-1.04,1.54-1.48.54-.44,1.12-.82,1.73-1.14.61-.32,1.26-.56,1.94-.73.68-.17,1.42-.25,2.21-.25,1.22,0,2.3.2,3.23.6.93.4,1.71.98,2.34,1.72.62.74,1.09,1.64,1.42,2.68.32,1.04.48,2.2.48,3.46v14.22h-3.95v-14.22c0-1.69-.38-3.01-1.15-3.94-.77-.93-1.95-1.4-3.52-1.4-1.16,0-2.24.28-3.25.84-1.01.56-1.94,1.32-2.79,2.27v16.45h-3.95v-22.33h2.36c.56,0,.9.27,1.04.82l.31,2.42ZM610.82,253.19v22.33h-2.34c-.56,0-.91-.27-1.06-.82l-.31-2.4c-.97,1.07-2.06,1.93-3.26,2.59-1.2.65-2.59.99-4.14.99-1.22,0-2.29-.21-3.23-.61-.93-.4-1.72-.97-2.35-1.7-.63-.73-1.1-1.62-1.42-2.67-.32-1.04-.48-2.2-.48-3.46v-14.24h3.92v14.24c0,1.69.39,3,1.16,3.92.77.92,1.95,1.39,3.53,1.39,1.16,0,2.25-.28,3.25-.83,1.01-.55,1.93-1.31,2.79-2.28v-16.45h3.92ZM556.19,275.52v-22.33h2.36c.56,0,.9.27,1.04.82l.29,2.29c.82-1.01,1.75-1.84,2.78-2.49,1.03-.65,2.22-.97,3.57-.97,1.5,0,2.72.42,3.65,1.26.93.84,1.6,1.97,2.01,3.4.32-.81.74-1.51,1.25-2.1.51-.59,1.07-1.07,1.71-1.46.63-.38,1.31-.66,2.02-.84.71-.18,1.43-.26,2.17-.26,1.18,0,2.23.18,3.14.56.92.37,1.7.93,2.34,1.65.64.72,1.12,1.6,1.46,2.65.34,1.05.51,2.26.51,3.61v14.22h-3.95v-14.22c0-1.75-.38-3.08-1.15-3.98-.76-.9-1.87-1.35-3.31-1.35-.65,0-1.26.11-1.84.34-.58.23-1.1.57-1.54,1.01-.44.44-.79.99-1.04,1.66-.26.67-.39,1.45-.39,2.33v14.22h-3.95v-14.22c0-1.79-.36-3.13-1.08-4.01-.72-.88-1.77-1.32-3.15-1.32-.97,0-1.87.26-2.69.78-.82.52-1.58,1.24-2.27,2.13v16.64h-3.95ZM519.93,275.52v-22.33h2.36c.56,0,.9.27,1.04.82l.29,2.29c.82-1.01,1.75-1.84,2.78-2.49,1.03-.65,2.22-.97,3.57-.97,1.5,0,2.72.42,3.65,1.26.93.84,1.6,1.97,2.01,3.4.32-.81.74-1.51,1.25-2.1.51-.59,1.07-1.07,1.71-1.46.63-.38,1.31-.66,2.02-.84.71-.18,1.43-.26,2.17-.26,1.18,0,2.23.18,3.14.56.92.37,1.7.93,2.34,1.65.64.72,1.13,1.6,1.46,2.65.34,1.05.51,2.26.51,3.61v14.22h-3.95v-14.22c0-1.75-.38-3.08-1.15-3.98-.76-.9-1.87-1.35-3.31-1.35-.65,0-1.26.11-1.84.34-.58.23-1.09.57-1.54,1.01-.44.44-.79.99-1.04,1.66-.26.67-.39,1.45-.39,2.33v14.22h-3.95v-14.22c0-1.79-.36-3.13-1.08-4.01-.72-.88-1.77-1.32-3.15-1.32-.97,0-1.87.26-2.69.78-.82.52-1.58,1.24-2.27,2.13v16.64h-3.95ZM504.34,272.77c2.2,0,3.85-.74,4.94-2.22,1.09-1.48,1.63-3.53,1.63-6.18s-.54-4.73-1.63-6.22c-1.09-1.48-2.73-2.23-4.94-2.23-1.12,0-2.09.19-2.92.57-.83.38-1.52.93-2.07,1.65-.55.72-.96,1.6-1.23,2.65-.27,1.05-.41,2.24-.41,3.56,0,2.64.55,4.7,1.65,6.18,1.09,1.48,2.76,2.22,4.99,2.22ZM504.34,252.84c1.63,0,3.1.27,4.41.82,1.31.54,2.42,1.32,3.35,2.31.93,1,1.64,2.2,2.13,3.62.49,1.42.74,3.01.74,4.75s-.24,3.35-.74,4.76c-.49,1.41-1.2,2.62-2.13,3.62-.93,1-2.04,1.76-3.35,2.3-1.31.54-2.78.81-4.41.81s-3.12-.27-4.44-.81c-1.32-.54-2.44-1.3-3.37-2.3-.93-1-1.63-2.21-2.12-3.62-.49-1.41-.74-3-.74-4.76s.25-3.34.74-4.75c.49-1.42,1.2-2.62,2.12-3.62.93-1,2.05-1.77,3.37-2.31,1.32-.54,2.79-.82,4.44-.82ZM489.02,269c.24,0,.44.1.62.29l1.7,1.83c-1.29,1.5-2.86,2.67-4.7,3.51-1.84.84-4.08,1.26-6.69,1.26-2.26,0-4.32-.4-6.17-1.18-1.85-.79-3.43-1.89-4.74-3.31-1.31-1.42-2.32-3.11-3.04-5.1-.72-1.98-1.08-4.17-1.08-6.55s.37-4.56,1.12-6.55c.75-1.99,1.81-3.69,3.17-5.12,1.36-1.42,2.98-2.54,4.88-3.32,1.89-.79,3.99-1.18,6.28-1.18s4.23.36,5.95,1.08c1.72.72,3.23,1.7,4.54,2.93l-1.41,1.96c-.09.15-.2.26-.34.36-.14.1-.33.15-.57.15-.26,0-.59-.15-.97-.43-.38-.29-.88-.6-1.5-.96-.62-.35-1.39-.68-2.32-.96-.92-.29-2.07-.43-3.42-.43-1.63,0-3.12.28-4.47.84-1.35.57-2.51,1.39-3.49,2.46-.98,1.07-1.74,2.38-2.29,3.92-.54,1.54-.82,3.28-.82,5.23s.29,3.73.85,5.27c.57,1.54,1.34,2.84,2.31,3.91.98,1.07,2.13,1.88,3.46,2.44,1.33.56,2.76.84,4.31.84.94,0,1.79-.06,2.55-.17.76-.11,1.45-.28,2.09-.51.64-.23,1.24-.54,1.79-.9.55-.36,1.09-.79,1.64-1.29.25-.22.5-.33.75-.33ZM449.47,272.39c-.49.59-1.07,1.09-1.74,1.53-.68.43-1.4.79-2.17,1.07-.77.28-1.57.49-2.39.63-.82.14-1.64.21-2.45.21-1.54,0-2.96-.27-4.26-.79-1.3-.52-2.42-1.29-3.37-2.29-.95-1.01-1.69-2.25-2.22-3.73-.53-1.49-.79-3.19-.79-5.12,0-1.56.24-3.01.72-4.36.48-1.35,1.16-2.53,2.06-3.52.9-.99,1.99-1.77,3.28-2.34,1.29-.57,2.75-.85,4.37-.85,1.34,0,2.58.22,3.72.67,1.14.45,2.12,1.09,2.95,1.94.83.85,1.48,1.89,1.95,3.13.47,1.24.71,2.66.71,4.25,0,.62-.07,1.03-.2,1.23-.13.21-.38.31-.75.31h-14.93c.04,1.41.24,2.64.59,3.68.34,1.04.82,1.91,1.44,2.61.62.7,1.35,1.22,2.2,1.57.85.35,1.81.52,2.87.52.98,0,1.84-.12,2.55-.34.71-.23,1.32-.47,1.84-.74.51-.26.95-.51,1.29-.74.34-.23.64-.34.89-.34.32,0,.57.12.75.37l1.1,1.43ZM446.3,261.92c0-.91-.13-1.75-.38-2.51-.26-.76-.63-1.41-1.13-1.96-.49-.55-1.09-.98-1.8-1.28-.71-.3-1.51-.45-2.4-.45-1.88,0-3.36.54-4.46,1.64-1.09,1.09-1.78,2.62-2.04,4.56h12.21Z"/>
      <g>
        <path class="cls-1" d="M681.8,21.52V5.9h6.8c.7,0,1.35.15,1.94.44.59.29,1.1.68,1.53,1.17.43.48.77,1.03,1.01,1.64.24.61.36,1.22.36,1.84,0,.7-.12,1.37-.37,1.99-.25.62-.6,1.16-1.07,1.62-.46.45-1,.78-1.62.99l3.67,5.94h-2.77l-3.39-5.43h-3.61v5.43h-2.49ZM684.29,13.91h4.29c.45,0,.86-.14,1.21-.41.35-.27.63-.63.84-1.07.2-.44.31-.92.31-1.45s-.12-1.03-.36-1.47c-.24-.44-.55-.79-.91-1.05-.37-.26-.77-.38-1.21-.38h-4.16v5.83Z"/>
        <path class="cls-1" d="M687.38,27.36c-7.52,0-13.64-6.12-13.64-13.64S679.86.08,687.38.08s13.64,6.12,13.64,13.64-6.12,13.64-13.64,13.64ZM687.38,1.77c-6.59,0-11.95,5.36-11.95,11.95s5.36,11.95,11.95,11.95,11.95-5.36,11.95-11.95-5.36-11.95-11.95-11.95Z"/>
      </g>
    </g>
  </g>
</svg>