<?xml version="1.0" encoding="UTF-8"?>
<svg id="Layer_1" data-name="Layer 1" xmlns="http://www.w3.org/2000/svg" viewBox="0 0 1920 1080">
  <defs>
    <style>
      .cls-1 {
        fill: #fbb963;
      }

      .cls-1, .cls-2, .cls-3, .cls-4, .cls-5, .cls-6, .cls-7 {
        fill-rule: evenodd;
      }

      .cls-8 {
        fill: #8a0025;
      }

      .cls-2 {
        fill: #fcba63;
      }

      .cls-3 {
        fill: #f6921e;
      }

      .cls-4 {
        fill: #f05a22;
      }

      .cls-5 {
        fill: #f9a51a;
      }

      .cls-6 {
        fill: #dcb626;
      }

      .cls-7 {
        fill: #cc7b4b;
      }
    </style>
  </defs>
  <polygon class="cls-8" points="186.12 744.15 145.09 744.15 145.09 850.37 125.45 850.37 125.45 744.15 84.24 744.15 84.24 726.94 186.12 726.94 186.12 744.15"/>
  <polygon class="cls-8" points="303.99 726.94 303.99 850.37 284.34 850.37 284.34 795.96 222.11 795.96 222.11 850.37 202.64 850.37 202.64 726.94 222.11 726.94 222.11 778.57 284.34 778.57 284.34 726.94 303.99 726.94"/>
  <polygon class="cls-8" points="416.47 833.16 416.47 850.37 331.81 850.37 331.81 726.94 414.91 726.94 414.91 744.15 351.28 744.15 351.28 779.27 406.39 779.27 406.39 795.44 351.28 795.44 351.28 833.16 416.47 833.16"/>
  <polygon class="cls-8" points="523.39 727.46 541.82 727.46 556.94 769.36 572.24 727.46 590.49 727.46 569.46 782.4 587.89 827.77 626.31 726.94 647.69 726.94 596.75 850.37 580.06 850.37 557.11 795.09 533.99 850.37 517.3 850.37 466.36 726.94 487.57 726.94 526.17 827.77 544.6 782.4 523.39 727.46"/>
  <polygon class="cls-8" points="746.96 833.16 746.96 850.37 662.29 850.37 662.29 726.94 745.39 726.94 745.39 744.15 681.77 744.15 681.77 779.27 736.88 779.27 736.88 795.44 681.77 795.44 681.77 833.16 746.96 833.16"/>
  <polygon class="cls-8" points="767.12 850.37 767.12 726.94 786.6 726.94 786.6 833.16 852.83 833.16 852.83 850.37 767.12 850.37"/>
  <polygon class="cls-8" points="868.65 850.37 868.65 726.94 888.12 726.94 888.12 833.16 954.36 833.16 954.36 850.37 868.65 850.37"/>
  <polygon class="cls-8" points="989.65 763.45 989.65 850.37 970.18 850.37 970.18 726.94 985.48 726.94 1056.06 815.95 1056.06 727.11 1075.71 727.11 1075.71 850.37 1059.54 850.37 989.65 763.45"/>
  <polygon class="cls-8" points="1188.19 833.16 1188.19 850.37 1103.52 850.37 1103.52 726.94 1186.62 726.94 1186.62 744.15 1123 744.15 1123 779.27 1178.11 779.27 1178.11 795.44 1123 795.44 1123 833.16 1188.19 833.16"/>
  <path class="cls-8" d="M1281.37,755.97c-1.16-1.28-2.84-2.64-5.04-4.09-2.2-1.45-4.78-2.81-7.74-4.09-2.96-1.27-6.2-2.32-9.74-3.13-3.53-.81-7.16-1.22-10.87-1.22-8.23,0-14.28,1.51-18.17,4.52-3.88,3.01-5.82,7.19-5.82,12.52,0,3.01.61,5.48,1.83,7.39,1.22,1.91,3.1,3.59,5.65,5.04,2.55,1.45,5.74,2.72,9.56,3.82,3.82,1.1,8.29,2.29,13.39,3.56,6.26,1.51,11.91,3.19,16.95,5.04,5.04,1.85,9.3,4.11,12.78,6.78,3.48,2.67,6.17,5.94,8.08,9.82,1.91,3.88,2.87,8.61,2.87,14.17,0,6.26-1.19,11.65-3.56,16.17-2.38,4.52-5.62,8.2-9.74,11.04-4.11,2.84-8.9,4.93-14.34,6.26-5.45,1.33-11.3,2-17.56,2-9.39,0-18.46-1.42-27.21-4.26-8.75-2.84-16.66-6.98-23.73-12.43l8.87-16.69c1.51,1.51,3.68,3.19,6.52,5.04,2.84,1.85,6.14,3.56,9.91,5.13,3.77,1.56,7.85,2.9,12.26,4,4.4,1.1,8.98,1.65,13.73,1.65,7.65,0,13.56-1.33,17.73-4,4.17-2.67,6.26-6.61,6.26-11.82,0-3.13-.78-5.74-2.35-7.82-1.56-2.09-3.8-3.91-6.69-5.48-2.9-1.56-6.43-2.98-10.6-4.26-4.17-1.27-8.93-2.61-14.26-4-6.14-1.62-11.5-3.33-16.08-5.13-4.58-1.8-8.37-3.97-11.39-6.52-3.01-2.55-5.3-5.53-6.87-8.95-1.57-3.42-2.35-7.56-2.35-12.43,0-6.03,1.16-11.39,3.48-16.08,2.32-4.69,5.48-8.63,9.48-11.82,4-3.19,8.72-5.59,14.17-7.21,5.45-1.62,11.36-2.43,17.73-2.43,8.34,0,16.05,1.33,23.12,4,7.07,2.67,13.27,5.97,18.6,9.91l-8.87,15.99Z"/>
  <path class="cls-8" d="M1387.59,755.97c-1.16-1.28-2.84-2.64-5.04-4.09-2.2-1.45-4.78-2.81-7.74-4.09-2.96-1.27-6.2-2.32-9.74-3.13-3.53-.81-7.16-1.22-10.87-1.22-8.23,0-14.28,1.51-18.17,4.52-3.88,3.01-5.82,7.19-5.82,12.52,0,3.01.61,5.48,1.83,7.39,1.22,1.91,3.1,3.59,5.65,5.04,2.55,1.45,5.74,2.72,9.56,3.82,3.82,1.1,8.29,2.29,13.39,3.56,6.26,1.51,11.91,3.19,16.95,5.04,5.04,1.85,9.3,4.11,12.78,6.78,3.48,2.67,6.17,5.94,8.08,9.82,1.91,3.88,2.87,8.61,2.87,14.17,0,6.26-1.19,11.65-3.56,16.17-2.38,4.52-5.62,8.2-9.74,11.04-4.11,2.84-8.89,4.93-14.34,6.26-5.45,1.33-11.3,2-17.56,2-9.39,0-18.46-1.42-27.21-4.26-8.75-2.84-16.66-6.98-23.73-12.43l8.87-16.69c1.51,1.51,3.68,3.19,6.52,5.04,2.84,1.85,6.14,3.56,9.91,5.13,3.77,1.56,7.85,2.9,12.26,4,4.4,1.1,8.98,1.65,13.73,1.65,7.65,0,13.56-1.33,17.73-4,4.17-2.67,6.26-6.61,6.26-11.82,0-3.13-.78-5.74-2.35-7.82-1.56-2.09-3.8-3.91-6.69-5.48-2.9-1.56-6.43-2.98-10.6-4.26-4.17-1.27-8.93-2.61-14.26-4-6.14-1.62-11.5-3.33-16.08-5.13-4.58-1.8-8.37-3.97-11.39-6.52-3.01-2.55-5.3-5.53-6.87-8.95-1.57-3.42-2.35-7.56-2.35-12.43,0-6.03,1.16-11.39,3.48-16.08,2.32-4.69,5.48-8.63,9.48-11.82,4-3.19,8.72-5.59,14.17-7.21,5.45-1.62,11.36-2.43,17.73-2.43,8.34,0,16.05,1.33,23.12,4,7.07,2.67,13.27,5.97,18.6,9.91l-8.87,15.99Z"/>
  <path class="cls-8" d="M1455.92,787.79c0-7.42,1.33-14.81,4-22.17,2.67-7.36,6.58-13.97,11.74-19.82,5.16-5.85,11.44-10.58,18.86-14.17,7.42-3.59,15.82-5.39,25.21-5.39,11.24,0,20.86,2.49,28.86,7.48,8,4.98,14.02,11.47,18.08,19.47l-15.3,10.26c-1.74-3.71-3.83-6.84-6.26-9.39-2.43-2.55-5.1-4.58-8-6.08-2.9-1.51-5.91-2.58-9.04-3.22-3.13-.64-6.14-.96-9.04-.96-6.49,0-12.17,1.3-17.04,3.91-4.87,2.61-8.95,6.06-12.26,10.34-3.3,4.29-5.8,9.1-7.48,14.43-1.68,5.33-2.52,10.66-2.52,15.99,0,6.03.98,11.76,2.95,17.21,1.97,5.45,4.72,10.26,8.26,14.43,3.53,4.17,7.74,7.5,12.6,10,4.87,2.49,10.2,3.74,15.99,3.74,3.01,0,6.11-.38,9.3-1.13,3.19-.75,6.26-1.97,9.21-3.65,2.96-1.68,5.68-3.8,8.17-6.35,2.49-2.55,4.55-5.62,6.17-9.21l16.17,9.21c-1.97,4.64-4.75,8.72-8.34,12.26-3.59,3.54-7.65,6.52-12.17,8.95-4.52,2.43-9.3,4.29-14.34,5.56-5.04,1.27-10,1.91-14.86,1.91-8.69,0-16.63-1.85-23.82-5.56-7.19-3.71-13.39-8.55-18.6-14.52-5.21-5.97-9.27-12.75-12.17-20.34-2.9-7.59-4.35-15.33-4.35-23.21"/>
  <rect class="cls-8" x="1582.65" y="726.94" width="19.47" height="123.43"/>
  <polygon class="cls-8" points="1720.52 744.15 1679.49 744.15 1679.49 850.37 1659.84 850.37 1659.84 744.15 1618.64 744.15 1618.64 726.94 1720.52 726.94 1720.52 744.15"/>
  <polygon class="cls-8" points="1746.07 726.94 1780.15 788.83 1814.57 726.94 1835.95 726.94 1789.88 806.22 1789.88 850.37 1770.41 850.37 1770.41 805.87 1724.69 726.94 1746.07 726.94"/>
  <path class="cls-5" d="M986.42,384.51c5.26,2.07,2.05,13.56.38,17.28-3.86-2.24-8.02-3.97-12.33-5.12,1.31-3.76,6.74-14.2,11.95-12.16"/>
  <path class="cls-4" d="M988.4,380.64c-8.48-2.01-14.38,4.18-18.64,15.01,3.02-12.77,9.31-18.55,19.27-16.51,8.48,5.61,8.83,14.15,1.93,25.3,4.65-10.67,4.86-19.22-2.55-23.8"/>
  <path class="cls-4" d="M989.03,379.13c3.02-12.49,3.18-21.57.13-28.66.8,9.65.47,18.69-1.42,28.44.42.06.85.13,1.29.22"/>
  <path class="cls-4" d="M989.03,379.13c6.71-10.96,13.01-17.49,20.19-20.34-7.4,6.25-13.56,12.88-19.12,21.1-.34-.26-.7-.51-1.07-.76"/>
  <path class="cls-4" d="M973.04,360.61c3.35,5.73,5.6,12.38,7.21,19.07.22-.09.44-.18.67-.25-.28-7.66-2.95-13.91-7.88-18.82"/>
  <path class="cls-4" d="M1013.42,377.36c-6.42,1.68-12.71,4.78-18.59,8.37-.09-.22-.19-.44-.3-.65,5.62-5.22,11.93-7.74,18.88-7.72"/>
  <path class="cls-4" d="M960.19,378.54c6.31.97,8.58,7.28,8.2,17.11-1.32-10.11-4.23-15.27-8.2-17.11Z"/>
  <path class="cls-4" d="M1009.5,397.37c-5.42-3.37-11.25-.06-17.36,7.65,7.58-6.81,13.15-8.84,17.36-7.65"/>
  <path class="cls-5" d="M898,420.46c2.07-5.26,13.56-2.05,17.28-.38-2.24,3.86-3.97,8.02-5.12,12.33-3.76-1.31-14.2-6.74-12.16-11.95"/>
  <path class="cls-4" d="M894.14,418.48c-2.01,8.48,4.17,14.38,15.01,18.64-12.77-3.02-18.55-9.31-16.51-19.27,5.61-8.48,14.15-8.83,25.3-1.93-10.67-4.65-19.22-4.86-23.8,2.55"/>
  <path class="cls-4" d="M892.63,417.85c-12.49-3.02-21.57-3.18-28.66-.13,9.66-.8,18.69-.47,28.44,1.42.06-.42.13-.86.22-1.29"/>
  <path class="cls-4" d="M892.63,417.85c-10.96-6.71-17.49-13.01-20.34-20.19,6.25,7.4,12.88,13.56,21.1,19.12-.26.34-.51.7-.76,1.07"/>
  <path class="cls-4" d="M874.11,433.84c5.73-3.35,12.38-5.6,19.07-7.21-.09-.22-.17-.45-.25-.67-7.66.28-13.91,2.95-18.82,7.88"/>
  <path class="cls-4" d="M890.86,393.46c1.68,6.42,4.79,12.71,8.38,18.59-.22.09-.44.19-.66.3-5.22-5.62-7.74-11.93-7.72-18.88"/>
  <path class="cls-4" d="M892.03,446.69c.97-6.31,7.28-8.58,17.11-8.19-10.11,1.32-15.27,4.22-17.11,8.19Z"/>
  <path class="cls-4" d="M910.87,397.38c-3.37,5.42-.06,11.25,7.65,17.36-6.81-7.58-8.84-13.15-7.65-17.36"/>
  <path class="cls-5" d="M986.42,508.88c5.26-2.07,2.05-13.56.38-17.28-3.86,2.24-8.02,3.97-12.33,5.12,1.31,3.76,6.74,14.2,11.95,12.16"/>
  <path class="cls-4" d="M988.4,512.75c-8.48,2.01-14.38-4.18-18.64-15.01,3.02,12.77,9.31,18.55,19.27,16.51,8.48-5.61,8.83-14.15,1.93-25.3,4.65,10.67,4.86,19.22-2.55,23.8"/>
  <path class="cls-4" d="M989.03,514.25c3.02,12.49,3.18,21.57.13,28.66.8-9.66.47-18.69-1.42-28.44.42-.06.85-.13,1.29-.22"/>
  <path class="cls-4" d="M989.03,514.25c6.71,10.96,13.01,17.49,20.19,20.34-7.4-6.25-13.56-12.88-19.12-21.1-.34.26-.7.51-1.07.76"/>
  <path class="cls-4" d="M973.04,532.77c3.35-5.73,5.6-12.38,7.21-19.07.22.09.44.18.67.25-.28,7.66-2.95,13.91-7.88,18.82"/>
  <path class="cls-4" d="M1013.42,516.02c-6.42-1.68-12.71-4.78-18.59-8.37-.09.22-.19.44-.3.65,5.62,5.22,11.93,7.74,18.88,7.72"/>
  <path class="cls-4" d="M960.19,514.85c6.31-.97,8.58-7.28,8.2-17.11-1.32,10.11-4.23,15.27-8.2,17.11h0Z"/>
  <path class="cls-4" d="M1009.5,496.01c-5.42,3.37-11.25.06-17.36-7.65,7.58,6.81,13.15,8.84,17.36,7.65"/>
  <path class="cls-5" d="M1022.37,420.46c-2.06-5.26-13.56-2.05-17.28-.38,2.24,3.86,3.97,8.02,5.12,12.33,3.76-1.31,14.2-6.74,12.16-11.95"/>
  <path class="cls-4" d="M1026.24,418.48c2.01,8.48-4.18,14.38-15.01,18.64,12.77-3.02,18.55-9.31,16.51-19.27-5.61-8.48-14.15-8.83-25.3-1.93,10.67-4.65,19.22-4.86,23.8,2.55"/>
  <path class="cls-4" d="M1027.75,417.85c12.49-3.02,21.57-3.18,28.66-.13-9.65-.8-18.69-.47-28.44,1.42-.06-.42-.13-.86-.22-1.29"/>
  <path class="cls-4" d="M1027.75,417.85c10.96-6.71,17.49-13.01,20.34-20.19-6.25,7.4-12.88,13.56-21.1,19.12.26.34.51.7.76,1.07"/>
  <path class="cls-4" d="M1046.27,433.84c-5.73-3.35-12.38-5.6-19.07-7.21.09-.22.18-.45.25-.67,7.66.28,13.91,2.95,18.82,7.88"/>
  <path class="cls-4" d="M1029.52,393.46c-1.68,6.42-4.79,12.71-8.38,18.59.22.09.44.19.66.3,5.22-5.62,7.74-11.93,7.72-18.88"/>
  <path class="cls-4" d="M1028.34,446.69c-.97-6.31-7.28-8.58-17.11-8.19,10.11,1.32,15.27,4.22,17.11,8.19Z"/>
  <path class="cls-4" d="M1009.51,397.38c3.37,5.42.06,11.25-7.65,17.36,6.81-7.58,8.84-13.15,7.65-17.36"/>
  <path class="cls-5" d="M933.96,384.51c-5.26,2.07-2.05,13.56-.38,17.28,3.86-2.24,8.02-3.97,12.33-5.12-1.31-3.76-6.74-14.2-11.95-12.16"/>
  <path class="cls-4" d="M931.98,380.64c8.48-2.01,14.38,4.18,18.64,15.01-3.01-12.77-9.31-18.55-19.27-16.51-8.48,5.61-8.83,14.15-1.93,25.3-4.65-10.67-4.86-19.22,2.55-23.8"/>
  <path class="cls-4" d="M931.35,379.13c-3.02-12.49-3.18-21.57-.13-28.66-.81,9.65-.47,18.69,1.42,28.44-.42.06-.85.13-1.29.22"/>
  <path class="cls-4" d="M931.35,379.13c-6.71-10.96-13.01-17.49-20.19-20.34,7.4,6.25,13.56,12.88,19.12,21.1.34-.26.7-.51,1.07-.76"/>
  <path class="cls-4" d="M947.34,360.61c-3.34,5.73-5.6,12.38-7.21,19.07-.22-.09-.45-.18-.67-.25.27-7.66,2.95-13.91,7.88-18.82"/>
  <path class="cls-4" d="M906.95,377.36c6.42,1.68,12.71,4.78,18.59,8.37.09-.22.19-.44.3-.65-5.62-5.22-11.93-7.74-18.88-7.72"/>
  <path class="cls-3" d="M960.19,257.36c-.92,11.19-14.97,15.55,0,35.01,14.97-19.46.92-23.82,0-35.01"/>
  <path class="cls-3" d="M965.71,305.93c11.59-8.11,17.61-17.45,17.13-28.23-5.25,7.75-17.52,8.97-17.13,28.23"/>
  <path class="cls-3" d="M954.67,305.93c-11.59-8.11-17.61-17.45-17.13-28.23,5.25,7.75,17.52,8.97,17.13,28.23"/>
  <path class="cls-4" d="M960.19,378.54c-6.31.97-8.58,7.28-8.2,17.11,1.32-10.11,4.23-15.27,8.2-17.11Z"/>
  <path class="cls-4" d="M910.87,397.37c5.42-3.37,11.25-.06,17.36,7.65-7.59-6.81-13.15-8.84-17.36-7.65"/>
  <path class="cls-5" d="M898,472.92c2.07,5.26,13.56,2.05,17.28.38-2.24-3.86-3.97-8.02-5.12-12.33-3.76,1.31-14.2,6.74-12.16,11.95"/>
  <path class="cls-4" d="M894.14,474.9c-2.01-8.48,4.17-14.38,15.01-18.64-12.77,3.01-18.55,9.31-16.51,19.27,5.61,8.48,14.15,8.83,25.3,1.93-10.67,4.66-19.22,4.86-23.8-2.55"/>
  <path class="cls-4" d="M892.63,475.53c-12.49,3.02-21.57,3.18-28.66.13,9.66.81,18.69.47,28.44-1.42.06.42.13.86.22,1.29"/>
  <path class="cls-4" d="M892.63,475.53c-10.96,6.71-17.49,13.01-20.34,20.19,6.25-7.4,12.88-13.56,21.1-19.12-.26-.34-.51-.7-.76-1.07"/>
  <path class="cls-4" d="M874.11,459.54c5.73,3.34,12.38,5.6,19.07,7.21-.09.22-.17.45-.25.67-7.66-.27-13.91-2.95-18.82-7.88"/>
  <path class="cls-4" d="M890.86,499.93c1.68-6.42,4.79-12.71,8.38-18.59-.22-.09-.44-.19-.66-.3-5.22,5.62-7.74,11.92-7.72,18.88"/>
  <path class="cls-4" d="M892.03,446.69c.97,6.31,7.28,8.58,17.11,8.2-10.11-1.32-15.27-4.23-17.11-8.2Z"/>
  <path class="cls-4" d="M910.87,496.01c-3.37-5.42-.06-11.25,7.65-17.36-6.81,7.59-8.84,13.15-7.65,17.36"/>
  <path class="cls-5" d="M933.96,508.88c-5.26-2.07-2.05-13.56-.38-17.28,3.86,2.24,8.02,3.97,12.33,5.12-1.31,3.76-6.74,14.2-11.95,12.16"/>
  <path class="cls-4" d="M931.98,512.75c8.48,2.01,14.38-4.18,18.64-15.01-3.01,12.77-9.31,18.55-19.27,16.51-8.48-5.61-8.83-14.15-1.93-25.3-4.65,10.67-4.86,19.22,2.55,23.8"/>
  <path class="cls-4" d="M931.35,514.25c-3.02,12.49-3.18,21.57-.13,28.66-.81-9.66-.47-18.69,1.42-28.44-.42-.06-.85-.13-1.29-.22"/>
  <path class="cls-4" d="M931.35,514.25c-6.71,10.96-13.01,17.49-20.19,20.34,7.4-6.25,13.56-12.88,19.12-21.1.34.26.7.51,1.07.76"/>
  <path class="cls-4" d="M947.34,532.77c-3.34-5.73-5.6-12.38-7.21-19.07-.22.09-.45.18-.67.25.27,7.66,2.95,13.91,7.88,18.82"/>
  <path class="cls-4" d="M906.95,516.02c6.42-1.68,12.71-4.78,18.59-8.37.09.22.19.44.3.65-5.62,5.22-11.93,7.74-18.88,7.72"/>
  <path class="cls-4" d="M960.19,514.85c-6.31-.97-8.58-7.28-8.2-17.11,1.32,10.11,4.23,15.27,8.2,17.11h0Z"/>
  <path class="cls-4" d="M910.87,496.01c5.42,3.37,11.25.06,17.36-7.65-7.59,6.81-13.15,8.84-17.36,7.65"/>
  <path class="cls-5" d="M1022.37,472.92c-2.06,5.26-13.56,2.05-17.28.38,2.24-3.86,3.97-8.02,5.12-12.33,3.76,1.31,14.2,6.74,12.16,11.95"/>
  <path class="cls-4" d="M1026.24,474.9c2.01-8.48-4.18-14.38-15.01-18.64,12.77,3.01,18.55,9.31,16.51,19.27-5.61,8.48-14.15,8.83-25.3,1.93,10.67,4.66,19.22,4.86,23.8-2.55"/>
  <path class="cls-4" d="M1027.75,475.53c12.49,3.02,21.57,3.18,28.66.13-9.65.81-18.69.47-28.44-1.42-.06.42-.13.86-.22,1.29"/>
  <path class="cls-4" d="M1027.75,475.53c10.96,6.71,17.49,13.01,20.34,20.19-6.25-7.4-12.88-13.56-21.1-19.12.26-.34.51-.7.76-1.07"/>
  <path class="cls-4" d="M1046.27,459.54c-5.73,3.34-12.38,5.6-19.07,7.21.09.22.18.45.25.67,7.66-.27,13.91-2.95,18.82-7.88"/>
  <path class="cls-4" d="M1029.52,499.93c-1.68-6.42-4.79-12.71-8.38-18.59.22-.09.44-.19.66-.3,5.22,5.62,7.74,11.92,7.72,18.88"/>
  <path class="cls-4" d="M1028.34,446.69c-.97,6.31-7.28,8.58-17.11,8.2,10.11-1.32,15.27-4.23,17.11-8.2Z"/>
  <path class="cls-4" d="M1009.51,496.01c3.37-5.42.06-11.25-7.65-17.36,6.81,7.59,8.84,13.15,7.65,17.36"/>
  <path class="cls-5" d="M960.19,402.5c24.41,0,44.2,19.79,44.2,44.2s-19.79,44.2-44.2,44.2-44.2-19.79-44.2-44.2,19.79-44.2,44.2-44.2M960.19,394.44c28.85,0,52.25,23.39,52.25,52.25s-23.39,52.25-52.25,52.25-52.25-23.39-52.25-52.25,23.39-52.25,52.25-52.25Z"/>
  <path class="cls-5" d="M960.19,433.49c7.29,0,13.2,5.91,13.2,13.2s-5.91,13.2-13.2,13.2-13.2-5.91-13.2-13.2,5.91-13.2,13.2-13.2M960.19,431.58c8.35,0,15.11,6.77,15.11,15.11s-6.77,15.12-15.11,15.12-15.11-6.77-15.11-15.12,6.77-15.11,15.11-15.11Z"/>
  <path class="cls-1" d="M960.19,646.47c16.4-15.33,40.26-23.06,49.21-46,6.43,27.41-33.58,34.46-49.21,64.51-15.63-30.05-55.64-37.1-49.21-64.51,8.95,22.95,32.81,30.67,49.21,46"/>
  <path class="cls-1" d="M960.19,246.91c16.4,15.33,40.26,23.06,49.21,46,6.43-27.41-33.58-34.46-49.21-64.51-15.63,30.05-55.64,37.1-49.21,64.51,8.95-22.95,32.81-30.67,49.21-46"/>
  <path class="cls-1" d="M1101.46,587.96c.76-22.44,12.17-44.77,2.27-67.33,23.93,14.83.62,48.12,10.82,80.41-32.3-10.2-65.58,13.11-80.41-10.82,22.55,9.9,44.88-1.51,67.33-2.27"/>
  <path class="cls-1" d="M818.92,305.43c22.44-.76,44.78-12.17,67.33-2.27-14.83-23.93-48.12-.62-80.41-10.82,10.2,32.3-13.11,65.58,10.82,80.41-9.9-22.55,1.51-44.88,2.27-67.33"/>
  <path class="cls-2" d="M1159.97,446.69c-15.33-16.4-23.06-40.26-46.01-49.21,27.41-6.43,34.46,33.58,64.51,49.21-30.05,15.63-37.1,55.64-64.51,49.21,22.95-8.95,30.67-32.81,46.01-49.21"/>
  <path class="cls-1" d="M760.41,446.69c15.33-16.4,23.06-40.26,46-49.21-27.41-6.43-34.46,33.58-64.51,49.21,30.05,15.63,37.1,55.64,64.51,49.21-22.95-8.95-30.67-32.81-46-49.21"/>
  <path class="cls-1" d="M1101.46,305.43c-22.44-.76-44.78-12.17-67.33-2.27,14.83-23.93,48.12-.62,80.41-10.82-10.2,32.3,13.11,65.58-10.82,80.41,9.9-22.55-1.51-44.88-2.27-67.33"/>
  <path class="cls-1" d="M818.92,587.96c-.76-22.44-12.16-44.77-2.27-67.33-23.93,14.83-.62,48.12-10.82,80.41,32.3-10.2,65.58,13.11,80.41-10.82-22.55,9.9-44.88-1.51-67.33-2.27"/>
  <path class="cls-3" d="M960.19,636.03c-.92-11.19-14.97-15.55,0-35.01,14.97,19.46.92,23.82,0,35.01"/>
  <path class="cls-3" d="M965.71,587.45c11.59,8.11,17.61,17.45,17.13,28.24-5.25-7.75-17.52-8.97-17.13-28.24"/>
  <path class="cls-3" d="M954.67,587.45c-11.59,8.11-17.61,17.45-17.13,28.24,5.25-7.75,17.52-8.97,17.13-28.24"/>
  <path class="cls-3" d="M1094.07,312.81c-8.56,7.26-21.58.41-24.76,24.76,24.34-3.18,17.5-16.19,24.76-24.76"/>
  <path class="cls-3" d="M1063.63,351.06c13.93,2.46,24.8.11,32.08-7.85-9.19,1.77-18.73-6.05-32.08,7.85"/>
  <path class="cls-3" d="M1055.82,343.25c-2.46-13.93-.11-24.8,7.85-32.08-1.77,9.19,6.05,18.73-7.85,32.08"/>
  <path class="cls-3" d="M826.31,580.57c7.26-8.57.41-21.58,24.76-24.76-3.18,24.34-16.19,17.5-24.76,24.76"/>
  <path class="cls-3" d="M864.56,550.13c2.46,13.93.11,24.79-7.85,32.08,1.77-9.19-6.05-18.73,7.85-32.08"/>
  <path class="cls-3" d="M856.75,542.32c-13.93-2.46-24.79-.11-32.08,7.85,9.19-1.77,18.73,6.05,32.08-7.85"/>
  <path class="cls-3" d="M1149.52,446.69c-11.19-.93-15.55-14.97-35.01,0,19.46,14.97,23.82.92,35.01,0"/>
  <path class="cls-3" d="M1100.95,452.21c8.11,11.59,17.45,17.61,28.24,17.13-7.75-5.25-8.97-17.52-28.24-17.13"/>
  <path class="cls-3" d="M1100.95,441.17c8.11-11.59,17.45-17.61,28.24-17.13-7.75,5.25-8.97,17.52-28.24,17.13"/>
  <path class="cls-3" d="M770.85,446.69c11.19-.93,15.55-14.97,35.01,0-19.46,14.97-23.82.92-35.01,0"/>
  <path class="cls-3" d="M819.43,452.21c-8.11,11.59-17.45,17.61-28.24,17.13,7.75-5.25,8.97-17.52,28.24-17.13"/>
  <path class="cls-3" d="M819.43,441.17c-8.11-11.59-17.45-17.61-28.24-17.13,7.75,5.25,8.97,17.52,28.24,17.13"/>
  <path class="cls-3" d="M1094.07,580.57c-7.26-8.57-.41-21.58-24.76-24.76,3.18,24.34,16.19,17.5,24.76,24.76"/>
  <path class="cls-3" d="M1055.82,550.13c-2.46,13.93-.11,24.79,7.85,32.08-1.77-9.19,6.05-18.73-7.85-32.08"/>
  <path class="cls-3" d="M1063.63,542.32c13.93-2.46,24.8-.11,32.08,7.85-9.19-1.77-18.73,6.05-32.08-7.85"/>
  <path class="cls-3" d="M826.31,312.81c8.56,7.26,21.58.41,24.76,24.76-24.34-3.17-17.5-16.19-24.76-24.76"/>
  <path class="cls-3" d="M856.75,351.06c-13.93,2.46-24.79.11-32.08-7.85,9.19,1.77,18.73-6.05,32.08,7.85"/>
  <path class="cls-3" d="M864.56,343.25c2.46-13.93.11-24.79-7.85-32.08,1.77,9.19-6.05,18.73,7.85,32.08"/>
  <path class="cls-6" d="M1042.05,249.06l-12.56,30.32c6.49-3.66,9.61-7.1,11.03-10.42,2.92-6.81-1.33-13.13,1.53-19.91M1042.05,249.06l-12.56,30.32c-2-7.18-1.78-11.82-.44-15.17,2.75-6.88,10.23-8.34,13-15.15ZM1030.52,284.57c13.84,2.93,24.78.94,32.32-6.78-9.24,1.46-18.52-6.67-32.32,6.78ZM1025.09,282.32c-11.86-7.72-18.18-16.86-18.06-27.65,5.5,7.57,17.81,8.38,18.06,27.65Z"/>
  <path class="cls-7" d="M970.69,310.44c4.61-19.66,46.74-8.42,56.25-24.9-4.93,18.38,32.81,40.23,22.17,57.39-7.21-1.15-14.36-3.73-20.85-4.58,5.73-2.31,9.27-4.21,9.64-6.98,1.22-9.16-19.02-20.95-13.44-39.85-9.42,17.31-32.07,11.34-37.68,18.68-1.7,2.22-.54,6.07,1.88,11.75-5.19-3.98-12.07-7.22-17.98-11.5"/>
  <path class="cls-6" d="M878.33,644.31l12.56-30.32c2,7.17,1.78,11.81.44,15.17-2.75,6.88-10.23,8.34-13,15.16M878.33,644.31l12.56-30.33c-6.49,3.66-9.61,7.1-11.04,10.42-2.92,6.81,1.33,13.13-1.53,19.91ZM895.29,611.05c11.86,7.72,18.18,16.86,18.06,27.65-5.5-7.57-17.81-8.38-18.06-27.65ZM889.86,608.8c-13.84-2.93-24.78-.94-32.32,6.78,9.24-1.46,18.52,6.66,32.32-6.78Z"/>
  <path class="cls-7" d="M871.27,550.46c-10.64,17.16,27.1,39.01,22.17,57.39,9.51-16.49,51.64-5.25,56.25-24.9-5.91-4.28-12.79-7.52-17.98-11.5,2.42,5.68,3.58,9.53,1.88,11.75-5.61,7.34-28.27,1.37-37.68,18.68,5.58-18.9-14.66-30.7-13.44-39.85.37-2.77,3.91-4.67,9.64-6.98-6.49-.86-13.63-3.43-20.85-4.58"/>
  <path class="cls-6" d="M878.33,249.06l12.56,30.32c2-7.18,1.78-11.82.44-15.17-2.75-6.88-10.23-8.34-13-15.15M878.33,249.06l12.56,30.32c-6.49-3.66-9.61-7.1-11.04-10.42-2.92-6.81,1.33-13.13-1.53-19.91ZM895.29,282.32c11.86-7.72,18.18-16.86,18.06-27.65-5.5,7.57-17.81,8.38-18.06,27.65ZM889.86,284.57c-13.84,2.93-24.78.94-32.32-6.78,9.24,1.46,18.52-6.67,32.32,6.78Z"/>
  <path class="cls-7" d="M871.27,342.92c-10.64-17.16,27.1-39.01,22.17-57.39,9.51,16.48,51.64,5.25,56.25,24.9-5.92,4.28-12.79,7.52-17.98,11.5,2.42-5.68,3.58-9.53,1.88-11.75-5.61-7.34-28.26-1.37-37.68-18.68,5.58,18.9-14.66,30.7-13.43,39.85.37,2.77,3.91,4.67,9.64,6.98-6.49.86-13.64,3.43-20.85,4.58"/>
  <path class="cls-6" d="M1042.05,644.31l-12.56-30.33c6.49,3.66,9.61,7.1,11.03,10.42,2.92,6.81-1.33,13.13,1.52,19.91M1042.05,644.31l-12.56-30.32c-2,7.17-1.78,11.81-.44,15.17,2.75,6.88,10.23,8.34,13,15.16M1030.52,608.8c13.84-2.93,24.78-.94,32.32,6.78-9.24-1.46-18.52,6.66-32.32-6.78ZM1025.09,611.05c-11.86,7.72-18.18,16.86-18.06,27.65,5.5-7.57,17.81-8.38,18.06-27.65Z"/>
  <path class="cls-7" d="M970.69,582.94c4.61,19.66,46.75,8.42,56.25,24.9-4.93-18.38,32.81-40.22,22.17-57.39-7.21,1.15-14.36,3.73-20.85,4.58,5.73,2.31,9.27,4.21,9.64,6.98,1.22,9.16-19.02,20.95-13.43,39.85-9.42-17.31-32.07-11.34-37.68-18.68-1.7-2.22-.54-6.07,1.88-11.75-5.19,3.98-12.07,7.22-17.98,11.5"/>
  <path class="cls-6" d="M762.56,364.83l30.33,12.56c-3.66-6.49-7.1-9.61-10.42-11.04-6.81-2.92-13.13,1.33-19.91-1.52M762.56,364.83l30.33,12.56c-7.18,2-11.82,1.78-15.17.44-6.88-2.75-8.34-10.23-15.16-13M798.08,376.36c2.93-13.84.94-24.78-6.78-32.32,1.46,9.24-6.66,18.52,6.78,32.32ZM795.83,381.79c-7.72,11.86-16.86,18.18-27.65,18.06,7.57-5.5,8.38-17.81,27.65-18.06Z"/>
  <path class="cls-7" d="M823.94,436.19c-19.66-4.61-8.42-46.74-24.9-56.25,18.38,4.93,40.23-32.81,57.39-22.17-1.15,7.21-3.73,14.36-4.58,20.85-2.31-5.73-4.21-9.27-6.98-9.64-9.16-1.22-20.96,19.02-39.86,13.44,17.31,9.42,11.34,32.07,18.68,37.68,2.22,1.7,6.07.54,11.75-1.88-3.98,5.19-7.22,12.07-11.5,17.98"/>
  <path class="cls-6" d="M1157.82,528.55l-30.33-12.56c7.17-2,11.82-1.78,15.17-.44,6.88,2.75,8.34,10.23,15.16,13M1157.82,528.55l-30.33-12.56c3.66,6.49,7.1,9.61,10.42,11.04,6.81,2.92,13.13-1.33,19.91,1.53ZM1124.56,511.59c7.72-11.86,16.86-18.18,27.65-18.06-7.57,5.5-8.38,17.81-27.65,18.06ZM1122.3,517.02c-2.92,13.84-.94,24.78,6.78,32.32-1.46-9.24,6.66-18.52-6.78-32.32Z"/>
  <path class="cls-7" d="M1063.96,535.61c17.16,10.64,39-27.1,57.39-22.17-16.49-9.51-5.25-51.64-24.9-56.25-4.28,5.92-7.52,12.79-11.5,17.98,5.68-2.42,9.53-3.58,11.75-1.88,7.34,5.61,1.37,28.27,18.68,37.68-18.9-5.58-30.7,14.66-39.86,13.44-2.77-.37-4.67-3.91-6.98-9.64-.86,6.49-3.43,13.64-4.58,20.85"/>
  <path class="cls-6" d="M762.56,528.55l30.33-12.56c-7.18-2-11.82-1.78-15.17-.44-6.88,2.75-8.34,10.23-15.16,13M762.56,528.55l30.33-12.56c-3.66,6.49-7.1,9.61-10.42,11.04-6.81,2.92-13.13-1.33-19.91,1.53ZM795.83,511.59c-7.72-11.86-16.86-18.18-27.65-18.06,7.57,5.5,8.38,17.81,27.65,18.06ZM798.08,517.02c2.93,13.84.94,24.78-6.78,32.32,1.46-9.24-6.66-18.52,6.78-32.32Z"/>
  <path class="cls-7" d="M856.42,535.61c-17.16,10.64-39-27.1-57.39-22.17,16.49-9.51,5.25-51.64,24.9-56.25,4.28,5.91,7.52,12.79,11.5,17.98-5.68-2.42-9.53-3.58-11.75-1.88-7.34,5.61-1.37,28.27-18.68,37.68,18.9-5.58,30.7,14.66,39.86,13.44,2.77-.37,4.67-3.91,6.98-9.64.86,6.49,3.43,13.64,4.58,20.85"/>
  <path class="cls-6" d="M1157.82,364.83l-30.32,12.56c3.66-6.49,7.1-9.61,10.42-11.04,6.81-2.92,13.13,1.33,19.91-1.52M1157.82,364.83l-30.33,12.56c7.17,2,11.82,1.78,15.17.44,6.88-2.75,8.34-10.23,15.16-13ZM1122.3,376.36c-2.92-13.84-.94-24.78,6.78-32.32-1.46,9.24,6.66,18.52-6.78,32.32ZM1124.56,381.79c7.72,11.86,16.86,18.18,27.65,18.06-7.57-5.5-8.38-17.81-27.65-18.06Z"/>
  <path class="cls-7" d="M1096.45,436.19c19.66-4.61,8.42-46.74,24.91-56.25-18.38,4.93-40.23-32.81-57.39-22.17,1.15,7.21,3.73,14.36,4.58,20.85,2.3-5.73,4.21-9.27,6.98-9.64,9.16-1.22,20.96,19.02,39.86,13.44-17.31,9.42-11.34,32.07-18.68,37.68-2.22,1.7-6.07.54-11.75-1.88,3.98,5.19,7.22,12.07,11.5,17.98"/>
  <path class="cls-4" d="M1017.5,389.38c21.9-16.39,47.52,5.13,67.55,5.59-13.84,14.49-16.74,47.82-43.81,51.72,27.08,3.9,29.97,37.23,43.81,51.72-20.03.46-45.65,21.98-67.55,5.59,16.39,21.9-5.13,47.52-5.59,67.55-14.49-13.84-47.82-16.74-51.72-43.81-3.9,27.08-37.23,29.97-51.72,43.81-.46-20.03-21.98-45.65-5.59-67.55-21.9,16.39-47.52-5.13-67.55-5.59,13.84-14.49,16.74-47.82,43.82-51.72-27.08-3.9-29.97-37.23-43.82-51.72,20.03-.46,45.65-21.98,67.55-5.59-16.39-21.9,5.13-47.52,5.59-67.55,14.49,13.84,47.82,16.74,51.72,43.82,3.9-27.08,37.23-29.97,51.72-43.82.46,20.04,21.98,45.65,5.59,67.55M848.25,400.32c16.81,16.54,14.32,38.7,40.19,46.16l.75.21-.76.21c-25.88,7.46-23.38,29.62-40.19,46.16,23.58-.2,37.49,17.25,61.06,4.22l.68-.39-.39.68c-13.03,23.57,4.41,37.48,4.22,61.06,16.54-16.81,38.7-14.32,46.16-40.19l.21-.76.21.76c7.46,25.88,29.62,23.38,46.16,40.19-.2-23.58,17.24-37.49,4.22-61.06l-.39-.68.68.39c23.57,13.03,37.48-4.41,61.06-4.22-16.81-16.54-14.32-38.7-40.19-46.16l-.76-.21.76-.21c25.88-7.46,23.38-29.62,40.19-46.16-23.58.2-37.49-17.24-61.06-4.22l-.68.39.39-.68c13.03-23.57-4.41-37.48-4.22-61.06-16.54,16.81-38.7,14.32-46.16,40.19l-.21.76-.21-.76c-7.46-25.88-29.62-23.38-46.16-40.19.2,23.58-17.25,37.49-4.22,61.06l.39.68-.68-.39c-23.57-13.03-37.48,4.42-61.06,4.22Z"/>
  <path class="cls-3" d="M1065.29,341.58c-17.63,6.67-36.77-9.55-49.55-1.14.6,1.9,1.23,3.83,1.85,5.76,13.78-5.54,31.18,9.55,45.11-2.04-11.59,13.93,3.5,31.33-2.04,45.11,1.94.62,3.86,1.25,5.76,1.85,8.42-12.78-7.8-31.92-1.14-49.55"/>
  <path class="cls-3" d="M855.08,551.8c6.67-17.63-9.55-36.77-1.14-49.55,1.9.6,3.83,1.23,5.76,1.85-5.54,13.78,9.55,31.18-2.04,45.11,13.93-11.59,31.33,3.5,45.11-2.04.62,1.94,1.25,3.86,1.85,5.76-12.78,8.42-31.92-7.8-49.55-1.14"/>
  <path class="cls-3" d="M960.19,298.05c-7.75,17.18-32.76,19.25-35.84,34.23,1.77.92,3.57,1.84,5.38,2.77,5.83-13.66,28.8-15.29,30.46-33.34,1.65,18.04,24.63,19.68,30.46,33.34,1.81-.93,3.61-1.85,5.38-2.77-3.08-14.99-28.09-17.05-35.84-34.23"/>
  <path class="cls-3" d="M960.19,595.33c-7.75-17.18-32.76-19.25-35.84-34.23,1.77-.92,3.57-1.84,5.38-2.77,5.83,13.66,28.8,15.29,30.46,33.34,1.65-18.04,24.63-19.68,30.46-33.34,1.81.93,3.61,1.85,5.38,2.77-3.08,14.99-28.09,17.05-35.84,34.23"/>
  <path class="cls-3" d="M855.08,341.58c6.67,17.63-9.55,36.77-1.14,49.55,1.9-.6,3.83-1.23,5.76-1.85-5.54-13.78,9.55-31.18-2.04-45.11,13.93,11.59,31.33-3.5,45.11,2.04.62-1.94,1.25-3.86,1.85-5.76-12.78-8.42-31.92,7.8-49.55,1.14"/>
  <path class="cls-3" d="M1065.29,551.8c-17.63-6.67-36.77,9.55-49.55,1.14.6-1.9,1.23-3.83,1.85-5.76,13.78,5.54,31.18-9.56,45.11,2.04-11.59-13.93,3.5-31.33-2.04-45.11,1.94-.62,3.86-1.25,5.76-1.85,8.42,12.78-7.8,31.92-1.14,49.55"/>
  <path class="cls-3" d="M811.55,446.69c17.18,7.75,19.25,32.76,34.23,35.84.92-1.77,1.84-3.57,2.77-5.38-13.66-5.83-15.29-28.8-33.34-30.46,18.04-1.65,19.68-24.63,33.34-30.46-.93-1.81-1.85-3.61-2.77-5.38-14.99,3.08-17.05,28.09-34.23,35.84"/>
  <path class="cls-3" d="M1108.83,446.69c-17.18,7.75-19.25,32.76-34.23,35.84-.92-1.77-1.84-3.57-2.77-5.38,13.66-5.83,15.29-28.8,33.34-30.46-18.04-1.65-19.68-24.63-33.34-30.46.93-1.81,1.85-3.61,2.77-5.38,14.99,3.08,17.05,28.09,34.23,35.84"/>
  <path class="cls-3" d="M1028.91,377.97c-1.61-9.05,2.61-13.02,12.26-12.26l-12.26,12.26c9.05,1.61,13.02-2.61,12.26-12.26l-12.26,12.26Z"/>
  <path class="cls-3" d="M1022.16,348.53c4.34,4.86,7.15,12.9,8.87,19.51.14-.12.29-.24.44-.36-.79-7.62-3.75-15.28-9.32-19.15"/>
  <path class="cls-3" d="M1032.44,348.47c2.22,4.93,2.77,11.63,2.69,17.66.32-.07.65-.13.99-.17.72-6.43-.19-12.96-3.68-17.48"/>
  <path class="cls-3" d="M1046.43,350.95c-1.27,4.99-4.73,10.3-8.36,14.83.46-.02.94-.02,1.44,0,4-4.36,6.84-9.58,6.92-14.82"/>
  <path class="cls-3" d="M1058.35,384.72c-4.86-4.34-12.9-7.15-19.51-8.87.13-.14.24-.29.36-.45,7.62.79,15.28,3.75,19.15,9.32"/>
  <path class="cls-3" d="M1058.41,374.44c-4.93-2.21-11.63-2.77-17.66-2.69.07-.32.13-.65.17-.98,6.43-.72,12.96.19,17.48,3.68"/>
  <path class="cls-3" d="M1055.93,360.45c-4.99,1.27-10.3,4.73-14.83,8.36.02-.46.02-.94,0-1.44,4.36-4,9.58-6.84,14.83-6.92"/>
  <path class="cls-3" d="M891.47,515.41c-9.05-1.61-13.02,2.61-12.26,12.26l12.26-12.26c1.61,9.05-2.61,13.02-12.26,12.26l12.26-12.26Z"/>
  <path class="cls-3" d="M862.03,508.66c4.86,4.34,12.9,7.15,19.51,8.87-.12.14-.24.29-.36.45-7.61-.79-15.27-3.75-19.15-9.32"/>
  <path class="cls-3" d="M861.97,518.95c4.93,2.21,11.63,2.77,17.66,2.69-.07.32-.13.65-.17.98-6.43.72-12.96-.19-17.48-3.68"/>
  <path class="cls-3" d="M864.45,532.93c4.99-1.27,10.3-4.74,14.83-8.36-.02.46-.02.94,0,1.44-4.36,4-9.58,6.84-14.82,6.92"/>
  <path class="cls-3" d="M898.22,544.85c-4.34-4.86-7.15-12.9-8.87-19.51-.14.12-.29.24-.45.36.79,7.62,3.75,15.27,9.32,19.15"/>
  <path class="cls-3" d="M887.94,544.91c-2.21-4.93-2.77-11.63-2.69-17.66-.32.07-.64.13-.98.17-.72,6.43.19,12.96,3.68,17.48"/>
  <path class="cls-3" d="M873.95,542.43c1.27-4.99,4.74-10.3,8.36-14.83-.46.02-.94.02-1.44,0-4,4.36-6.84,9.58-6.92,14.82"/>
  <path class="cls-3" d="M960.19,349.51c-7.54-5.26-7.37-11.05,0-17.34v17.34c7.54-5.26,7.36-11.05,0-17.34v17.34Z"/>
  <path class="cls-3" d="M934.6,333.46c6.5.37,14.18,4.07,20.06,7.52.01-.19.03-.38.06-.57-5.94-4.83-13.45-8.15-20.13-6.95"/>
  <path class="cls-3" d="M941.83,326.14c5.05,1.92,10.18,6.26,14.39,10.58.18-.27.37-.55.57-.82-4.04-5.06-9.3-9.03-14.96-9.76"/>
  <path class="cls-3" d="M953.47,318.01c2.63,4.43,3.93,10.63,4.57,16.4.32-.34.65-.68,1.01-1.02-.25-5.92-1.94-11.61-5.59-15.38"/>
  <path class="cls-3" d="M985.78,333.46c-6.5.37-14.18,4.07-20.07,7.52-.01-.19-.03-.38-.06-.57,5.94-4.83,13.45-8.15,20.13-6.95"/>
  <path class="cls-3" d="M978.55,326.14c-5.05,1.92-10.18,6.26-14.39,10.58-.18-.27-.37-.55-.57-.82,4.04-5.06,9.3-9.03,14.96-9.76"/>
  <path class="cls-3" d="M966.91,318.01c-2.63,4.43-3.93,10.63-4.57,16.4-.32-.34-.66-.68-1.01-1.02.26-5.92,1.94-11.61,5.59-15.38"/>
  <path class="cls-3" d="M960.19,543.88c-7.54,5.26-7.37,11.05,0,17.34v-17.34c7.54,5.26,7.36,11.05,0,17.34v-17.34Z"/>
  <path class="cls-3" d="M934.6,559.92c6.5-.37,14.18-4.07,20.06-7.52.01.19.03.38.06.57-5.94,4.83-13.45,8.15-20.13,6.95"/>
  <path class="cls-3" d="M941.83,567.24c5.05-1.92,10.18-6.26,14.39-10.58.18.27.37.55.57.82-4.04,5.06-9.3,9.03-14.96,9.76"/>
  <path class="cls-3" d="M953.47,575.37c2.63-4.43,3.93-10.63,4.57-16.4.32.34.65.68,1.01,1.02-.25,5.92-1.94,11.61-5.59,15.38"/>
  <path class="cls-3" d="M985.78,559.92c-6.5-.37-14.18-4.07-20.07-7.52-.01.19-.03.38-.06.57,5.94,4.83,13.45,8.15,20.13,6.95"/>
  <path class="cls-3" d="M978.55,567.24c-5.05-1.92-10.18-6.26-14.39-10.58-.18.27-.37.55-.57.82,4.04,5.06,9.3,9.03,14.96,9.76"/>
  <path class="cls-3" d="M966.91,575.37c-2.63-4.43-3.93-10.63-4.57-16.4-.32.34-.66.68-1.01,1.02.26,5.92,1.94,11.61,5.59,15.38"/>
  <path class="cls-3" d="M891.47,377.97c-9.05,1.61-13.02-2.61-12.26-12.26l12.26,12.26c1.61-9.05-2.61-13.02-12.26-12.26l12.26,12.26Z"/>
  <path class="cls-3" d="M862.03,384.72c4.86-4.34,12.9-7.15,19.51-8.87-.12-.14-.24-.29-.36-.45-7.61.79-15.27,3.75-19.15,9.32"/>
  <path class="cls-3" d="M861.97,374.44c4.93-2.21,11.63-2.77,17.66-2.69-.07-.32-.13-.65-.17-.98-6.43-.72-12.96.19-17.48,3.68"/>
  <path class="cls-3" d="M864.45,360.45c4.99,1.27,10.3,4.73,14.83,8.36-.02-.46-.02-.94,0-1.44-4.36-4-9.58-6.84-14.82-6.92"/>
  <path class="cls-3" d="M898.22,348.53c-4.34,4.86-7.15,12.9-8.87,19.51-.14-.12-.29-.24-.45-.36.79-7.62,3.75-15.28,9.32-19.15"/>
  <path class="cls-3" d="M887.94,348.47c-2.21,4.93-2.77,11.63-2.69,17.66-.32-.07-.64-.13-.98-.17-.72-6.43.19-12.96,3.68-17.48"/>
  <path class="cls-3" d="M873.95,350.95c1.27,4.99,4.74,10.3,8.36,14.83-.46-.02-.94-.02-1.44,0-4-4.36-6.84-9.58-6.92-14.82"/>
  <path class="cls-3" d="M1028.91,515.41c-1.61,9.05,2.61,13.02,12.26,12.26l-12.26-12.26c9.05-1.61,13.02,2.61,12.26,12.26l-12.26-12.26Z"/>
  <path class="cls-3" d="M1022.16,544.85c4.34-4.86,7.15-12.9,8.87-19.51.14.12.29.24.44.36-.79,7.62-3.75,15.27-9.32,19.15"/>
  <path class="cls-3" d="M1032.44,544.91c2.22-4.93,2.77-11.63,2.69-17.66.32.07.65.13.99.17.72,6.43-.19,12.96-3.68,17.48"/>
  <path class="cls-3" d="M1046.43,542.43c-1.27-4.99-4.73-10.3-8.36-14.83.46.02.94.02,1.44,0,4,4.36,6.84,9.58,6.92,14.82"/>
  <path class="cls-3" d="M1058.35,508.66c-4.86,4.34-12.9,7.15-19.51,8.87.13.14.24.29.36.45,7.62-.79,15.28-3.75,19.15-9.32"/>
  <path class="cls-3" d="M1058.41,518.95c-4.93,2.21-11.63,2.77-17.66,2.69.07.32.13.65.17.98,6.43.72,12.96-.19,17.48-3.68"/>
  <path class="cls-3" d="M1055.93,532.93c-4.99-1.27-10.3-4.74-14.83-8.36.02.46.02.94,0,1.44,4.36,4,9.58,6.84,14.83,6.92"/>
  <path class="cls-3" d="M863.01,446.69c-5.26,7.54-11.05,7.37-17.34,0h17.34c-5.26-7.53-11.05-7.36-17.34,0h17.34Z"/>
  <path class="cls-3" d="M846.96,472.28c.37-6.5,4.07-14.18,7.52-20.07-.19-.01-.38-.03-.57-.06-4.83,5.95-8.15,13.45-6.95,20.13"/>
  <path class="cls-3" d="M839.64,465.06c1.92-5.05,6.26-10.18,10.58-14.39-.27-.18-.55-.37-.82-.57-5.06,4.04-9.03,9.3-9.76,14.96"/>
  <path class="cls-3" d="M831.51,453.41c4.43-2.63,10.63-3.93,16.4-4.57-.34-.32-.68-.65-1.02-1.01-5.92.26-11.61,1.94-15.38,5.59"/>
  <path class="cls-3" d="M846.96,421.1c.37,6.5,4.07,14.18,7.52,20.07-.19.01-.38.03-.57.06-4.83-5.94-8.15-13.45-6.95-20.13"/>
  <path class="cls-3" d="M839.64,428.33c1.92,5.05,6.26,10.18,10.58,14.39-.27.18-.55.37-.82.57-5.06-4.04-9.03-9.3-9.76-14.96"/>
  <path class="cls-3" d="M831.51,439.98c4.43,2.63,10.63,3.93,16.4,4.57-.34.32-.68.65-1.02,1.01-5.92-.26-11.61-1.94-15.38-5.59"/>
  <path class="cls-3" d="M1057.38,446.69c5.26,7.54,11.05,7.37,17.34,0h-17.34c5.26-7.53,11.05-7.36,17.34,0h-17.34Z"/>
  <path class="cls-3" d="M1073.42,472.28c-.37-6.5-4.07-14.18-7.52-20.07.19-.01.38-.03.57-.06,4.82,5.95,8.15,13.45,6.95,20.13"/>
  <path class="cls-3" d="M1080.74,465.06c-1.92-5.05-6.26-10.18-10.58-14.39.27-.18.55-.37.82-.57,5.06,4.04,9.03,9.3,9.76,14.96"/>
  <path class="cls-3" d="M1088.87,453.41c-4.43-2.63-10.63-3.93-16.4-4.57.34-.32.68-.65,1.02-1.01,5.92.26,11.61,1.94,15.38,5.59"/>
  <path class="cls-3" d="M1073.42,421.1c-.37,6.5-4.07,14.18-7.52,20.07.19.01.38.03.57.06,4.82-5.94,8.15-13.45,6.95-20.13"/>
  <path class="cls-3" d="M1080.74,428.33c-1.92,5.05-6.26,10.18-10.58,14.39.27.18.55.37.82.57,5.06-4.04,9.03-9.3,9.76-14.96"/>
  <path class="cls-3" d="M1088.87,439.98c-4.43,2.63-10.63,3.93-16.4,4.57.34.32.68.65,1.02,1.01,5.92-.26,11.61-1.94,15.38-5.59"/>
  <path class="cls-5" d="M989.71,417.17c-7.8-1.17-13.75,5.84-17.25,17.25l17.25-17.25c1.17,7.8-5.84,13.75-17.25,17.25l17.25-17.25Z"/>
  <path class="cls-5" d="M930.66,476.22c-1.17-7.8,5.84-13.75,17.25-17.25l-17.25,17.25c7.8,1.17,13.75-5.84,17.25-17.25l-17.25,17.25Z"/>
  <path class="cls-5" d="M960.19,404.94c-6.35,4.68-5.59,13.85,0,24.39v-24.39c6.35,4.68,5.59,13.85,0,24.39v-24.39Z"/>
  <path class="cls-5" d="M960.19,488.45c-6.35-4.68-5.59-13.85,0-24.39v24.39c6.35-4.68,5.59-13.85,0-24.39v24.39Z"/>
  <path class="cls-5" d="M930.66,417.17c-1.18,7.8,5.84,13.75,17.25,17.25l-17.25-17.25c7.8-1.17,13.75,5.84,17.25,17.25l-17.25-17.25Z"/>
  <path class="cls-5" d="M989.71,476.22c-7.8,1.17-13.75-5.84-17.25-17.25l17.25,17.25c1.17-7.8-5.84-13.75-17.25-17.25l17.25,17.25Z"/>
  <path class="cls-5" d="M918.43,446.69c4.68,6.35,13.85,5.59,24.39,0h-24.39c4.68-6.35,13.85-5.59,24.39,0h-24.39Z"/>
  <path class="cls-5" d="M1001.95,446.69c-4.68,6.35-13.85,5.59-24.39,0h24.39c-4.68-6.35-13.85-5.59-24.39,0h24.39Z"/>
  <path class="cls-5" d="M974.79,411.43l-8.08,19.51c2.12-3.53,7.58-6.14,9.31-10.62.9-2.34.89-5.14-1.23-8.89l-8.08,19.51c.99-3.99-1.02-9.7.92-14.09,1.01-2.29,3-4.27,7.15-5.41"/>
  <path class="cls-5" d="M945.58,481.95l8.08-19.51c-.99,3.99,1.02,9.7-.92,14.09-1.01,2.29-3,4.27-7.15,5.41l8.08-19.51c-2.12,3.53-7.58,6.14-9.31,10.62-.91,2.34-.89,5.14,1.23,8.89"/>
  <path class="cls-5" d="M995.45,432.08l-19.51,8.08c3.99-.99,9.7,1.02,14.09-.93,2.29-1.01,4.27-3.01,5.41-7.15l-19.51,8.08c3.53-2.12,6.14-7.58,10.62-9.31,2.34-.9,5.14-.89,8.89,1.23"/>
  <path class="cls-5" d="M924.93,461.3l19.51-8.08c-3.53,2.12-6.14,7.58-10.62,9.31-2.34.91-5.14.89-8.89-1.23l19.5-8.08c-3.99.99-9.7-1.02-14.09.93-2.29,1.01-4.27,3-5.41,7.15"/>
  <path class="cls-5" d="M995.45,461.3l-19.51-8.08c3.53,2.12,6.14,7.58,10.62,9.31,2.34.91,5.14.89,8.89-1.23l-19.51-8.08c3.99.99,9.7-1.02,14.09.93,2.29,1.01,4.27,3,5.41,7.15"/>
  <path class="cls-5" d="M924.93,432.08l19.5,8.08c-3.99-.99-9.7,1.02-14.09-.93-2.29-1.01-4.27-3.01-5.41-7.15l19.51,8.08c-3.53-2.12-6.14-7.58-10.62-9.31-2.34-.9-5.14-.89-8.89,1.23"/>
  <path class="cls-5" d="M974.79,481.95l-8.08-19.51c.99,3.99-1.02,9.7.92,14.09,1.01,2.29,3,4.27,7.15,5.41l-8.08-19.51c2.12,3.53,7.58,6.14,9.31,10.62.9,2.34.89,5.14-1.23,8.89"/>
  <path class="cls-5" d="M945.58,411.43l8.08,19.51c-2.12-3.53-7.58-6.14-9.31-10.62-.91-2.34-.89-5.14,1.23-8.89l8.08,19.51c-.99-3.99,1.02-9.7-.92-14.09-1.01-2.29-3-4.27-7.15-5.41"/>
  <path class="cls-8" d="M1861.92,710.35h4.91c2.35,0,3.95-.35,4.81-1.04.85-.7,1.29-1.62,1.29-2.76,0-.74-.21-1.4-.62-1.98-.41-.59-.98-1.02-1.71-1.31-.74-.29-2.09-.43-4.07-.43h-4.61v7.53ZM1857.87,724.45v-25.04h8.62c2.95,0,5.08.23,6.4.7,1.33.46,2.37,1.27,3.16,2.42.78,1.15,1.17,2.37,1.17,3.67,0,1.82-.65,3.42-1.97,4.77-1.31,1.36-3.04,2.12-5.22,2.29.89.37,1.6.81,2.13,1.33,1.01.98,2.24,2.64,3.71,4.96l3.06,4.9h-4.91l-2.23-3.94c-1.75-3.11-3.17-5.06-4.25-5.84-.74-.57-1.81-.85-3.24-.84h-2.38v10.62h-4.05ZM1868.11,692.14c-3.28,0-6.47.84-9.57,2.52-3.1,1.67-5.52,4.08-7.27,7.2-1.75,3.12-2.62,6.37-2.62,9.74s.86,6.58,2.58,9.65c1.72,3.08,4.12,5.48,7.21,7.2,3.09,1.72,6.31,2.58,9.67,2.58s6.58-.86,9.66-2.58c3.09-1.72,5.49-4.12,7.2-7.2,1.71-3.08,2.56-6.29,2.56-9.65s-.87-6.62-2.61-9.74c-1.74-3.12-4.16-5.52-7.27-7.2-3.11-1.68-6.29-2.52-9.54-2.52ZM1868.11,688.28c3.91,0,7.72,1,11.46,3.02,3.72,2,6.63,4.88,8.7,8.61,2.08,3.74,3.12,7.64,3.12,11.69s-1.02,7.88-3.08,11.58c-2.04,3.71-4.91,6.59-8.61,8.63-3.7,2.06-7.57,3.08-11.59,3.08s-7.9-1.02-11.6-3.08c-3.7-2.04-6.58-4.92-8.63-8.63-2.05-3.7-3.09-7.57-3.09-11.58s1.04-7.95,3.13-11.69c2.1-3.73,5.01-6.61,8.73-8.61,3.73-2.01,7.55-3.02,11.47-3.02Z"/>
</svg>